<mxfile host="65bd71144e">
    <diagram name="Page-1" id="E7_OJjUSE4klw7X2G-Lp">
        <mxGraphModel dx="3460" dy="1607" grid="1" gridSize="10" guides="1" tooltips="1" connect="1" arrows="1" fold="1" page="1" pageScale="1" pageWidth="827" pageHeight="1169" math="0" shadow="0">
            <root>
                <mxCell id="0"/>
                <mxCell id="1" parent="0"/>
                <mxCell id="ApGJmGc57MLFiiCAId_t-61" style="edgeStyle=orthogonalEdgeStyle;rounded=0;orthogonalLoop=1;jettySize=auto;html=1;exitX=0.5;exitY=0;exitDx=0;exitDy=0;entryX=1;entryY=0.5;entryDx=0;entryDy=0;endArrow=diamondThin;endFill=1;fillColor=#b1ddf0;strokeColor=#10739e;" parent="1" source="6aip0LbrX7Aj0xWpN0cm-20" target="ApGJmGc57MLFiiCAId_t-26" edge="1">
                    <mxGeometry relative="1" as="geometry"/>
                </mxCell>
                <mxCell id="6aip0LbrX7Aj0xWpN0cm-20" value="&lt;i&gt;Item&lt;/i&gt;" style="swimlane;fontStyle=1;align=center;verticalAlign=top;childLayout=stackLayout;horizontal=1;startSize=26;horizontalStack=0;resizeParent=1;resizeParentMax=0;resizeLast=0;collapsible=1;marginBottom=0;whiteSpace=wrap;html=1;fillColor=#b1ddf0;strokeColor=#10739e;" parent="1" vertex="1">
                    <mxGeometry x="240" y="400" width="200" height="78" as="geometry"/>
                </mxCell>
                <mxCell id="6aip0LbrX7Aj0xWpN0cm-23" value="+ use(character: Character&amp;amp;): void" style="text;align=left;verticalAlign=top;spacingLeft=4;spacingRight=4;overflow=hidden;rotatable=0;points=[[0,0.5],[1,0.5]];portConstraint=eastwest;whiteSpace=wrap;html=1;" parent="6aip0LbrX7Aj0xWpN0cm-20" vertex="1">
                    <mxGeometry y="26" width="200" height="26" as="geometry"/>
                </mxCell>
                <mxCell id="ApGJmGc57MLFiiCAId_t-81" value="+ getName(): std::string" style="text;align=left;verticalAlign=top;spacingLeft=4;spacingRight=4;overflow=hidden;rotatable=0;points=[[0,0.5],[1,0.5]];portConstraint=eastwest;whiteSpace=wrap;html=1;" parent="6aip0LbrX7Aj0xWpN0cm-20" vertex="1">
                    <mxGeometry y="52" width="200" height="26" as="geometry"/>
                </mxCell>
                <mxCell id="ApGJmGc57MLFiiCAId_t-89" style="edgeStyle=orthogonalEdgeStyle;rounded=0;orthogonalLoop=1;jettySize=auto;html=1;exitX=0.5;exitY=0;exitDx=0;exitDy=0;endArrow=block;endFill=0;" parent="1" target="6aip0LbrX7Aj0xWpN0cm-16" edge="1">
                    <mxGeometry relative="1" as="geometry"/>
                </mxCell>
                <mxCell id="6aip0LbrX7Aj0xWpN0cm-66" value="Cc3k" style="swimlane;fontStyle=1;align=center;verticalAlign=top;childLayout=stackLayout;horizontal=1;startSize=26;horizontalStack=0;resizeParent=1;resizeParentMax=0;resizeLast=0;collapsible=1;marginBottom=0;whiteSpace=wrap;html=1;labelBackgroundColor=light-dark(default, #00b3ff);swimlaneLine=1;textShadow=0;fillColor=#b0e3e6;strokeColor=#0e8088;" parent="1" vertex="1">
                    <mxGeometry x="-140" y="-560" width="200" height="190" as="geometry">
                        <mxRectangle x="-120" y="-440" width="70" height="30" as="alternateBounds"/>
                    </mxGeometry>
                </mxCell>
                <mxCell id="6aip0LbrX7Aj0xWpN0cm-67" value="- level: Level" style="text;align=left;verticalAlign=top;spacingLeft=4;spacingRight=4;overflow=hidden;rotatable=0;points=[[0,0.5],[1,0.5]];portConstraint=eastwest;whiteSpace=wrap;html=1;labelBackgroundColor=light-dark(default, #00b3ff);swimlaneLine=1;textShadow=0;" parent="6aip0LbrX7Aj0xWpN0cm-66" vertex="1">
                    <mxGeometry y="26" width="200" height="26" as="geometry"/>
                </mxCell>
                <mxCell id="X3tzuLr0O_ewd4WEzX1T-9" value="- input: Input&lt;span style=&quot;color: rgba(0, 0, 0, 0); font-family: monospace; font-size: 0px; text-wrap-mode: nowrap;&quot;&gt;%3CmxGraphModel%3E%3Croot%3E%3CmxCell%20id%3D%220%22%2F%3E%3CmxCell%20id%3D%221%22%20parent%3D%220%22%2F%3E%3CmxCell%20id%3D%222%22%20value%3D%22%2B%20level%3A%20Level*%22%20style%3D%22text%3BstrokeColor%3Dnone%3BfillColor%3Dnone%3Balign%3Dleft%3BverticalAlign%3Dtop%3BspacingLeft%3D4%3BspacingRight%3D4%3Boverflow%3Dhidden%3Brotatable%3D0%3Bpoints%3D%5B%5B0%2C0.5%5D%2C%5B1%2C0.5%5D%5D%3BportConstraint%3Deastwest%3BwhiteSpace%3Dwrap%3Bhtml%3D1%3B%22%20vertex%3D%221%22%20parent%3D%221%22%3E%3CmxGeometry%20x%3D%22-120%22%20y%3D%22-414%22%20width%3D%22160%22%20height%3D%2226%22%20as%3D%22geometry%22%2F%3E%3C%2FmxCell%3E%3C%2Froot%3E%3C%2FmxGraphModel%3E&lt;/span&gt;" style="text;align=left;verticalAlign=top;spacingLeft=4;spacingRight=4;overflow=hidden;rotatable=0;points=[[0,0.5],[1,0.5]];portConstraint=eastwest;whiteSpace=wrap;html=1;labelBackgroundColor=light-dark(default, #00b3ff);swimlaneLine=1;textShadow=0;" parent="6aip0LbrX7Aj0xWpN0cm-66" vertex="1">
                    <mxGeometry y="52" width="200" height="26" as="geometry"/>
                </mxCell>
                <mxCell id="X3tzuLr0O_ewd4WEzX1T-10" value="- output: Output&lt;span style=&quot;color: rgba(0, 0, 0, 0); font-family: monospace; font-size: 0px; text-wrap-mode: nowrap;&quot;&gt;%3CmxGraphModel%3E%3Croot%3E%3CmxCell%20id%3D%220%22%2F%3E%3CmxCell%20id%3D%221%22%20parent%3D%220%22%2F%3E%3CmxCell%20id%3D%222%22%20value%3D%22%2B%20level%3A%20Level*%22%20style%3D%22text%3BstrokeColor%3Dnone%3BfillColor%3Dnone%3Balign%3Dleft%3BverticalAlign%3Dtop%3BspacingLeft%3D4%3BspacingRight%3D4%3Boverflow%3Dhidden%3Brotatable%3D0%3Bpoints%3D%5B%5B0%2C0.5%5D%2C%5B1%2C0.5%5D%5D%3BportConstraint%3Deastwest%3BwhiteSpace%3Dwrap%3Bhtml%3D1%3B%22%20vertex%3D%221%22%20parent%3D%221%22%3E%3CmxGeometry%20x%3D%22-120%22%20y%3D%22-414%22%20width%3D%22160%22%20height%3D%2226%22%20as%3D%22geometry%22%2F%3E%3C%2FmxCell%3E%3C%2Froot%3E%3C%2FmxGraphModel%3E&lt;/span&gt;" style="text;align=left;verticalAlign=top;spacingLeft=4;spacingRight=4;overflow=hidden;rotatable=0;points=[[0,0.5],[1,0.5]];portConstraint=eastwest;whiteSpace=wrap;html=1;labelBackgroundColor=light-dark(default, #00b3ff);swimlaneLine=1;textShadow=0;" parent="6aip0LbrX7Aj0xWpN0cm-66" vertex="1">
                    <mxGeometry y="78" width="200" height="26" as="geometry"/>
                </mxCell>
                <mxCell id="X3tzuLr0O_ewd4WEzX1T-11" value="- isRunning: bool&lt;span style=&quot;color: rgba(0, 0, 0, 0); font-family: monospace; font-size: 0px; text-wrap-mode: nowrap;&quot;&gt;%3CmxGraphModel%3E%3Croot%3E%3CmxCell%20id%3D%220%22%2F%3E%3CmxCell%20id%3D%221%22%20parent%3D%220%22%2F%3E%3CmxCell%20id%3D%222%22%20value%3D%22%2B%20level%3A%20Level*%22%20style%3D%22text%3BstrokeColor%3Dnone%3BfillColor%3Dnone%3Balign%3Dleft%3BverticalAlign%3Dtop%3BspacingLeft%3D4%3BspacingRight%3D4%3Boverflow%3Dhidden%3Brotatable%3D0%3Bpoints%3D%5B%5B0%2C0.5%5D%2C%5B1%2C0.5%5D%5D%3BportConstraint%3Deastwest%3BwhiteSpace%3Dwrap%3Bhtml%3D1%3B%22%20vertex%3D%221%22%20parent%3D%221%22%3E%3CmxGeometry%20x%3D%22-120%22%20y%3D%22-414%22%20width%3D%22160%22%20height%3D%2226%22%20as%3D%22geometry%22%2F%3E%3C%2FmxCell%3E%3C%2Froot%3E%3C%2FmxGraphModel%3E&lt;/span&gt;" style="text;align=left;verticalAlign=top;spacingLeft=4;spacingRight=4;overflow=hidden;rotatable=0;points=[[0,0.5],[1,0.5]];portConstraint=eastwest;whiteSpace=wrap;html=1;labelBackgroundColor=light-dark(default, #00b3ff);swimlaneLine=1;textShadow=0;" parent="6aip0LbrX7Aj0xWpN0cm-66" vertex="1">
                    <mxGeometry y="104" width="200" height="26" as="geometry"/>
                </mxCell>
                <mxCell id="6aip0LbrX7Aj0xWpN0cm-68" value="" style="line;strokeWidth=1;align=left;verticalAlign=middle;spacingTop=-1;spacingLeft=3;spacingRight=3;rotatable=0;labelPosition=right;points=[];portConstraint=eastwest;labelBackgroundColor=light-dark(default, #00b3ff);swimlaneLine=1;textShadow=0;" parent="6aip0LbrX7Aj0xWpN0cm-66" vertex="1">
                    <mxGeometry y="130" width="200" height="8" as="geometry"/>
                </mxCell>
                <mxCell id="6aip0LbrX7Aj0xWpN0cm-69" value="+ Cc3k()" style="text;align=left;verticalAlign=top;spacingLeft=4;spacingRight=4;overflow=hidden;rotatable=0;points=[[0,0.5],[1,0.5]];portConstraint=eastwest;whiteSpace=wrap;html=1;labelBackgroundColor=light-dark(default, #00b3ff);swimlaneLine=1;textShadow=0;" parent="6aip0LbrX7Aj0xWpN0cm-66" vertex="1">
                    <mxGeometry y="138" width="200" height="26" as="geometry"/>
                </mxCell>
                <mxCell id="X3tzuLr0O_ewd4WEzX1T-12" value="+ run(): void" style="text;align=left;verticalAlign=top;spacingLeft=4;spacingRight=4;overflow=hidden;rotatable=0;points=[[0,0.5],[1,0.5]];portConstraint=eastwest;whiteSpace=wrap;html=1;labelBackgroundColor=light-dark(default, #00b3ff);swimlaneLine=1;textShadow=0;" parent="6aip0LbrX7Aj0xWpN0cm-66" vertex="1">
                    <mxGeometry y="164" width="200" height="26" as="geometry"/>
                </mxCell>
                <mxCell id="ApGJmGc57MLFiiCAId_t-15" style="edgeStyle=orthogonalEdgeStyle;rounded=0;orthogonalLoop=1;jettySize=auto;html=1;exitX=0.5;exitY=0;exitDx=0;exitDy=0;endArrow=diamondThin;endFill=1;labelBackgroundColor=light-dark(default, #00b3ff);swimlaneLine=1;textShadow=0;fillColor=#b0e3e6;strokeColor=#0e8088;" parent="1" source="6aip0LbrX7Aj0xWpN0cm-70" target="6aip0LbrX7Aj0xWpN0cm-66" edge="1">
                    <mxGeometry relative="1" as="geometry"/>
                </mxCell>
                <mxCell id="6aip0LbrX7Aj0xWpN0cm-70" value="Output" style="swimlane;fontStyle=1;align=center;verticalAlign=top;childLayout=stackLayout;horizontal=1;startSize=26;horizontalStack=0;resizeParent=1;resizeParentMax=0;resizeLast=0;collapsible=1;marginBottom=0;whiteSpace=wrap;html=1;labelBackgroundColor=light-dark(default, #00b3ff);swimlaneLine=1;textShadow=0;fillColor=#b0e3e6;strokeColor=#0e8088;" parent="1" vertex="1">
                    <mxGeometry x="-440" y="-280" width="200" height="130" as="geometry"/>
                </mxCell>
                <mxCell id="6aip0LbrX7Aj0xWpN0cm-73" value="+ Output()" style="text;align=left;verticalAlign=top;spacingLeft=4;spacingRight=4;overflow=hidden;rotatable=0;points=[[0,0.5],[1,0.5]];portConstraint=eastwest;whiteSpace=wrap;html=1;labelBackgroundColor=light-dark(default, #00b3ff);swimlaneLine=1;textShadow=0;" parent="6aip0LbrX7Aj0xWpN0cm-70" vertex="1">
                    <mxGeometry y="26" width="200" height="26" as="geometry"/>
                </mxCell>
                <mxCell id="X3tzuLr0O_ewd4WEzX1T-14" value="+ render(level: const Level&amp;amp;): void" style="text;align=left;verticalAlign=top;spacingLeft=4;spacingRight=4;overflow=hidden;rotatable=0;points=[[0,0.5],[1,0.5]];portConstraint=eastwest;whiteSpace=wrap;html=1;labelBackgroundColor=light-dark(default, #00b3ff);swimlaneLine=1;textShadow=0;" parent="6aip0LbrX7Aj0xWpN0cm-70" vertex="1">
                    <mxGeometry y="52" width="200" height="26" as="geometry"/>
                </mxCell>
                <mxCell id="ApGJmGc57MLFiiCAId_t-3" value="+ renderGameOver(): void" style="text;align=left;verticalAlign=top;spacingLeft=4;spacingRight=4;overflow=hidden;rotatable=0;points=[[0,0.5],[1,0.5]];portConstraint=eastwest;whiteSpace=wrap;html=1;labelBackgroundColor=light-dark(default, #00b3ff);swimlaneLine=1;textShadow=0;" parent="6aip0LbrX7Aj0xWpN0cm-70" vertex="1">
                    <mxGeometry y="78" width="200" height="26" as="geometry"/>
                </mxCell>
                <mxCell id="X3tzuLr0O_ewd4WEzX1T-15" value="+ displayMenu(): void" style="text;align=left;verticalAlign=top;spacingLeft=4;spacingRight=4;overflow=hidden;rotatable=0;points=[[0,0.5],[1,0.5]];portConstraint=eastwest;whiteSpace=wrap;html=1;labelBackgroundColor=light-dark(default, #00b3ff);swimlaneLine=1;textShadow=0;" parent="6aip0LbrX7Aj0xWpN0cm-70" vertex="1">
                    <mxGeometry y="104" width="200" height="26" as="geometry"/>
                </mxCell>
                <mxCell id="ApGJmGc57MLFiiCAId_t-16" style="edgeStyle=orthogonalEdgeStyle;rounded=0;orthogonalLoop=1;jettySize=auto;html=1;exitX=0.5;exitY=0;exitDx=0;exitDy=0;endArrow=diamondThin;endFill=1;labelBackgroundColor=light-dark(default, #00b3ff);swimlaneLine=1;textShadow=0;fillColor=#b0e3e6;strokeColor=#0e8088;" parent="1" source="6aip0LbrX7Aj0xWpN0cm-74" target="6aip0LbrX7Aj0xWpN0cm-66" edge="1">
                    <mxGeometry relative="1" as="geometry"/>
                </mxCell>
                <mxCell id="6aip0LbrX7Aj0xWpN0cm-74" value="Input" style="swimlane;fontStyle=1;align=center;verticalAlign=top;childLayout=stackLayout;horizontal=1;startSize=26;horizontalStack=0;resizeParent=1;resizeParentMax=0;resizeLast=0;collapsible=1;marginBottom=0;whiteSpace=wrap;html=1;labelBackgroundColor=light-dark(default, #00b3ff);swimlaneLine=1;textShadow=0;fillColor=#b0e3e6;strokeColor=#0e8088;" parent="1" vertex="1">
                    <mxGeometry x="160" y="-280" width="200" height="78" as="geometry"/>
                </mxCell>
                <mxCell id="6aip0LbrX7Aj0xWpN0cm-77" value="+ Input()" style="text;align=left;verticalAlign=top;spacingLeft=4;spacingRight=4;overflow=hidden;rotatable=0;points=[[0,0.5],[1,0.5]];portConstraint=eastwest;whiteSpace=wrap;html=1;labelBackgroundColor=light-dark(default, #00b3ff);swimlaneLine=1;textShadow=0;" parent="6aip0LbrX7Aj0xWpN0cm-74" vertex="1">
                    <mxGeometry y="26" width="200" height="26" as="geometry"/>
                </mxCell>
                <mxCell id="X3tzuLr0O_ewd4WEzX1T-13" value="+ applyInput(level: Level&amp;amp;): void" style="text;align=left;verticalAlign=top;spacingLeft=4;spacingRight=4;overflow=hidden;rotatable=0;points=[[0,0.5],[1,0.5]];portConstraint=eastwest;whiteSpace=wrap;html=1;labelBackgroundColor=light-dark(default, #00b3ff);swimlaneLine=1;textShadow=0;" parent="6aip0LbrX7Aj0xWpN0cm-74" vertex="1">
                    <mxGeometry y="52" width="200" height="26" as="geometry"/>
                </mxCell>
                <mxCell id="ApGJmGc57MLFiiCAId_t-23" style="edgeStyle=orthogonalEdgeStyle;rounded=0;orthogonalLoop=1;jettySize=auto;html=1;exitX=0.5;exitY=0;exitDx=0;exitDy=0;endArrow=diamondThin;endFill=1;fillColor=#b0e3e6;strokeColor=#0e8088;" parent="1" source="6aip0LbrX7Aj0xWpN0cm-100" target="6aip0LbrX7Aj0xWpN0cm-105" edge="1">
                    <mxGeometry relative="1" as="geometry"/>
                </mxCell>
                <mxCell id="6aip0LbrX7Aj0xWpN0cm-100" value="Map" style="swimlane;fontStyle=1;align=center;verticalAlign=top;childLayout=stackLayout;horizontal=1;startSize=26;horizontalStack=0;resizeParent=1;resizeParentMax=0;resizeLast=0;collapsible=1;marginBottom=0;whiteSpace=wrap;html=1;labelBackgroundColor=light-dark(default, #00b3ff);swimlaneLine=1;textShadow=0;fillColor=#b0e3e6;strokeColor=#0e8088;" parent="1" vertex="1">
                    <mxGeometry x="-220" y="120" width="360" height="216" as="geometry"/>
                </mxCell>
                <mxCell id="6aip0LbrX7Aj0xWpN0cm-101" value="- width: int" style="text;align=left;verticalAlign=top;spacingLeft=4;spacingRight=4;overflow=hidden;rotatable=0;points=[[0,0.5],[1,0.5]];portConstraint=eastwest;whiteSpace=wrap;html=1;labelBackgroundColor=light-dark(default, #00b3ff);swimlaneLine=1;textShadow=0;" parent="6aip0LbrX7Aj0xWpN0cm-100" vertex="1">
                    <mxGeometry y="26" width="360" height="26" as="geometry"/>
                </mxCell>
                <mxCell id="ApGJmGc57MLFiiCAId_t-25" value="- height: int" style="text;align=left;verticalAlign=top;spacingLeft=4;spacingRight=4;overflow=hidden;rotatable=0;points=[[0,0.5],[1,0.5]];portConstraint=eastwest;whiteSpace=wrap;html=1;labelBackgroundColor=light-dark(default, #00b3ff);swimlaneLine=1;textShadow=0;" parent="6aip0LbrX7Aj0xWpN0cm-100" vertex="1">
                    <mxGeometry y="52" width="360" height="26" as="geometry"/>
                </mxCell>
                <mxCell id="ApGJmGc57MLFiiCAId_t-26" value="- grid: std::vector&amp;lt;Tile&amp;gt;" style="text;align=left;verticalAlign=top;spacingLeft=4;spacingRight=4;overflow=hidden;rotatable=0;points=[[0,0.5],[1,0.5]];portConstraint=eastwest;whiteSpace=wrap;html=1;labelBackgroundColor=light-dark(default, #00b3ff);swimlaneLine=1;textShadow=0;" parent="6aip0LbrX7Aj0xWpN0cm-100" vertex="1">
                    <mxGeometry y="78" width="360" height="26" as="geometry"/>
                </mxCell>
                <mxCell id="6aip0LbrX7Aj0xWpN0cm-102" value="" style="line;strokeWidth=1;align=left;verticalAlign=middle;spacingTop=-1;spacingLeft=3;spacingRight=3;rotatable=0;labelPosition=right;points=[];portConstraint=eastwest;labelBackgroundColor=light-dark(default, #00b3ff);swimlaneLine=1;textShadow=0;" parent="6aip0LbrX7Aj0xWpN0cm-100" vertex="1">
                    <mxGeometry y="104" width="360" height="8" as="geometry"/>
                </mxCell>
                <mxCell id="ApGJmGc57MLFiiCAId_t-73" value="+ Map(width: int, height: int)" style="text;align=left;verticalAlign=top;spacingLeft=4;spacingRight=4;overflow=hidden;rotatable=0;points=[[0,0.5],[1,0.5]];portConstraint=eastwest;whiteSpace=wrap;html=1;labelBackgroundColor=light-dark(default, #00b3ff);swimlaneLine=1;textShadow=0;" parent="6aip0LbrX7Aj0xWpN0cm-100" vertex="1">
                    <mxGeometry y="112" width="360" height="26" as="geometry"/>
                </mxCell>
                <mxCell id="6aip0LbrX7Aj0xWpN0cm-103" value="+ getTile(x: int, y: int): Tile&amp;amp;" style="text;align=left;verticalAlign=top;spacingLeft=4;spacingRight=4;overflow=hidden;rotatable=0;points=[[0,0.5],[1,0.5]];portConstraint=eastwest;whiteSpace=wrap;html=1;labelBackgroundColor=light-dark(default, #00b3ff);swimlaneLine=1;textShadow=0;" parent="6aip0LbrX7Aj0xWpN0cm-100" vertex="1">
                    <mxGeometry y="138" width="360" height="26" as="geometry"/>
                </mxCell>
                <mxCell id="ApGJmGc57MLFiiCAId_t-35" value="+ isPassable(x: int, y: int): bool" style="text;align=left;verticalAlign=top;spacingLeft=4;spacingRight=4;overflow=hidden;rotatable=0;points=[[0,0.5],[1,0.5]];portConstraint=eastwest;whiteSpace=wrap;html=1;labelBackgroundColor=light-dark(default, #00b3ff);swimlaneLine=1;textShadow=0;" parent="6aip0LbrX7Aj0xWpN0cm-100" vertex="1">
                    <mxGeometry y="164" width="360" height="26" as="geometry"/>
                </mxCell>
                <mxCell id="ApGJmGc57MLFiiCAId_t-36" value="+ moveCharacter(fromX: int, fromY: int, toX: int, toY: int): void" style="text;align=left;verticalAlign=top;spacingLeft=4;spacingRight=4;overflow=hidden;rotatable=0;points=[[0,0.5],[1,0.5]];portConstraint=eastwest;whiteSpace=wrap;html=1;labelBackgroundColor=light-dark(default, #00b3ff);swimlaneLine=1;textShadow=0;" parent="6aip0LbrX7Aj0xWpN0cm-100" vertex="1">
                    <mxGeometry y="190" width="360" height="26" as="geometry"/>
                </mxCell>
                <mxCell id="X3tzuLr0O_ewd4WEzX1T-4" style="edgeStyle=orthogonalEdgeStyle;rounded=0;orthogonalLoop=1;jettySize=auto;html=1;exitX=0.5;exitY=0;exitDx=0;exitDy=0;endArrow=diamondThin;endFill=1;labelBackgroundColor=light-dark(default, #00b3ff);swimlaneLine=1;textShadow=0;fillColor=#b0e3e6;strokeColor=#0e8088;" parent="1" source="6aip0LbrX7Aj0xWpN0cm-105" target="6aip0LbrX7Aj0xWpN0cm-66" edge="1">
                    <mxGeometry relative="1" as="geometry"/>
                </mxCell>
                <mxCell id="6aip0LbrX7Aj0xWpN0cm-105" value="Level" style="swimlane;fontStyle=1;align=center;verticalAlign=top;childLayout=stackLayout;horizontal=1;startSize=26;horizontalStack=0;resizeParent=1;resizeParentMax=0;resizeLast=0;collapsible=1;marginBottom=0;whiteSpace=wrap;html=1;labelBackgroundColor=none;swimlaneLine=1;textShadow=0;fillColor=#b0e3e6;strokeColor=#0e8088;" parent="1" vertex="1">
                    <mxGeometry x="-200" y="-280" width="320" height="320" as="geometry"/>
                </mxCell>
                <mxCell id="6aip0LbrX7Aj0xWpN0cm-106" value="- map: Map" style="text;align=left;verticalAlign=top;spacingLeft=4;spacingRight=4;overflow=hidden;rotatable=0;points=[[0,0.5],[1,0.5]];portConstraint=eastwest;whiteSpace=wrap;html=1;labelBackgroundColor=light-dark(default, #00b3ff);swimlaneLine=1;textShadow=0;" parent="6aip0LbrX7Aj0xWpN0cm-105" vertex="1">
                    <mxGeometry y="26" width="320" height="26" as="geometry"/>
                </mxCell>
                <mxCell id="X3tzuLr0O_ewd4WEzX1T-17" value="- player: Player" style="text;align=left;verticalAlign=top;spacingLeft=4;spacingRight=4;overflow=hidden;rotatable=0;points=[[0,0.5],[1,0.5]];portConstraint=eastwest;whiteSpace=wrap;html=1;labelBackgroundColor=light-dark(default, #00b3ff);swimlaneLine=1;textShadow=0;" parent="6aip0LbrX7Aj0xWpN0cm-105" vertex="1">
                    <mxGeometry y="52" width="320" height="26" as="geometry"/>
                </mxCell>
                <mxCell id="X3tzuLr0O_ewd4WEzX1T-18" value="- enemies: std::vector&amp;lt;Enemy*&amp;gt;" style="text;align=left;verticalAlign=top;spacingLeft=4;spacingRight=4;overflow=hidden;rotatable=0;points=[[0,0.5],[1,0.5]];portConstraint=eastwest;whiteSpace=wrap;html=1;labelBackgroundColor=light-dark(default, #00b3ff);swimlaneLine=1;textShadow=0;" parent="6aip0LbrX7Aj0xWpN0cm-105" vertex="1">
                    <mxGeometry y="78" width="320" height="26" as="geometry"/>
                </mxCell>
                <mxCell id="X3tzuLr0O_ewd4WEzX1T-19" value="- items: std::vector&amp;lt;Item*&amp;gt;" style="text;align=left;verticalAlign=top;spacingLeft=4;spacingRight=4;overflow=hidden;rotatable=0;points=[[0,0.5],[1,0.5]];portConstraint=eastwest;whiteSpace=wrap;html=1;labelBackgroundColor=light-dark(default, #00b3ff);swimlaneLine=1;textShadow=0;" parent="6aip0LbrX7Aj0xWpN0cm-105" vertex="1">
                    <mxGeometry y="104" width="320" height="26" as="geometry"/>
                </mxCell>
                <mxCell id="X3tzuLr0O_ewd4WEzX1T-20" value="- gameOver: bool" style="text;align=left;verticalAlign=top;spacingLeft=4;spacingRight=4;overflow=hidden;rotatable=0;points=[[0,0.5],[1,0.5]];portConstraint=eastwest;whiteSpace=wrap;html=1;labelBackgroundColor=light-dark(default, #00b3ff);swimlaneLine=1;textShadow=0;" parent="6aip0LbrX7Aj0xWpN0cm-105" vertex="1">
                    <mxGeometry y="130" width="320" height="26" as="geometry"/>
                </mxCell>
                <mxCell id="X3tzuLr0O_ewd4WEzX1T-21" value="- messageLog: std::string" style="text;align=left;verticalAlign=top;spacingLeft=4;spacingRight=4;overflow=hidden;rotatable=0;points=[[0,0.5],[1,0.5]];portConstraint=eastwest;whiteSpace=wrap;html=1;labelBackgroundColor=light-dark(default, #00b3ff);swimlaneLine=1;textShadow=0;" parent="6aip0LbrX7Aj0xWpN0cm-105" vertex="1">
                    <mxGeometry y="156" width="320" height="26" as="geometry"/>
                </mxCell>
                <mxCell id="6aip0LbrX7Aj0xWpN0cm-107" value="" style="line;strokeWidth=1;align=left;verticalAlign=middle;spacingTop=-1;spacingLeft=3;spacingRight=3;rotatable=0;labelPosition=right;points=[];portConstraint=eastwest;labelBackgroundColor=light-dark(default, #00b3ff);swimlaneLine=1;textShadow=0;" parent="6aip0LbrX7Aj0xWpN0cm-105" vertex="1">
                    <mxGeometry y="182" width="320" height="8" as="geometry"/>
                </mxCell>
                <mxCell id="6aip0LbrX7Aj0xWpN0cm-108" value="+ Level()" style="text;align=left;verticalAlign=top;spacingLeft=4;spacingRight=4;overflow=hidden;rotatable=0;points=[[0,0.5],[1,0.5]];portConstraint=eastwest;whiteSpace=wrap;html=1;labelBackgroundColor=light-dark(default, #00b3ff);swimlaneLine=1;textShadow=0;" parent="6aip0LbrX7Aj0xWpN0cm-105" vertex="1">
                    <mxGeometry y="190" width="320" height="26" as="geometry"/>
                </mxCell>
                <mxCell id="ApGJmGc57MLFiiCAId_t-1" value="+ isGameOver(): bool" style="text;align=left;verticalAlign=top;spacingLeft=4;spacingRight=4;overflow=hidden;rotatable=0;points=[[0,0.5],[1,0.5]];portConstraint=eastwest;whiteSpace=wrap;html=1;labelBackgroundColor=light-dark(default, #00b3ff);swimlaneLine=1;textShadow=0;" parent="6aip0LbrX7Aj0xWpN0cm-105" vertex="1">
                    <mxGeometry y="216" width="320" height="26" as="geometry"/>
                </mxCell>
                <mxCell id="ApGJmGc57MLFiiCAId_t-17" value="+ handleCommand(command: const std::string&amp;amp;): void" style="text;align=left;verticalAlign=top;spacingLeft=4;spacingRight=4;overflow=hidden;rotatable=0;points=[[0,0.5],[1,0.5]];portConstraint=eastwest;whiteSpace=wrap;html=1;labelBackgroundColor=light-dark(default, #00b3ff);swimlaneLine=1;textShadow=0;" parent="6aip0LbrX7Aj0xWpN0cm-105" vertex="1">
                    <mxGeometry y="242" width="320" height="26" as="geometry"/>
                </mxCell>
                <mxCell id="ApGJmGc57MLFiiCAId_t-18" value="+ movePlayer(dx: int, dy: int): void" style="text;align=left;verticalAlign=top;spacingLeft=4;spacingRight=4;overflow=hidden;rotatable=0;points=[[0,0.5],[1,0.5]];portConstraint=eastwest;whiteSpace=wrap;html=1;labelBackgroundColor=light-dark(default, #00b3ff);swimlaneLine=1;textShadow=0;" parent="6aip0LbrX7Aj0xWpN0cm-105" vertex="1">
                    <mxGeometry y="268" width="320" height="26" as="geometry"/>
                </mxCell>
                <mxCell id="ApGJmGc57MLFiiCAId_t-19" value="+ update(): void" style="text;align=left;verticalAlign=top;spacingLeft=4;spacingRight=4;overflow=hidden;rotatable=0;points=[[0,0.5],[1,0.5]];portConstraint=eastwest;whiteSpace=wrap;html=1;labelBackgroundColor=light-dark(default, #00b3ff);swimlaneLine=1;textShadow=0;" parent="6aip0LbrX7Aj0xWpN0cm-105" vertex="1">
                    <mxGeometry y="294" width="320" height="26" as="geometry"/>
                </mxCell>
                <mxCell id="1ukILYW7oThmmqB00d8G-5" style="edgeStyle=orthogonalEdgeStyle;rounded=0;orthogonalLoop=1;jettySize=auto;html=1;exitX=0.5;exitY=0;exitDx=0;exitDy=0;fillColor=#d0cee2;strokeColor=#56517e;" parent="1" source="KDQt6LDgePx4zoFpufXs-8" target="uY9pWNeATDA_SJli-45b-10" edge="1">
                    <mxGeometry relative="1" as="geometry"/>
                </mxCell>
                <mxCell id="KDQt6LDgePx4zoFpufXs-8" value="Shade" style="swimlane;fontStyle=1;align=center;verticalAlign=top;childLayout=stackLayout;horizontal=1;startSize=26;horizontalStack=0;resizeParent=1;resizeParentMax=0;resizeLast=0;collapsible=1;marginBottom=0;whiteSpace=wrap;html=1;fillColor=#d0cee2;strokeColor=#56517e;" parent="1" vertex="1">
                    <mxGeometry x="-1142" y="1080" width="162" height="50" as="geometry"/>
                </mxCell>
                <mxCell id="1ukILYW7oThmmqB00d8G-4" style="edgeStyle=orthogonalEdgeStyle;rounded=0;orthogonalLoop=1;jettySize=auto;html=1;exitX=0.5;exitY=0;exitDx=0;exitDy=0;fillColor=#d0cee2;strokeColor=#56517e;" parent="1" source="KDQt6LDgePx4zoFpufXs-12" target="uY9pWNeATDA_SJli-45b-10" edge="1">
                    <mxGeometry relative="1" as="geometry"/>
                </mxCell>
                <mxCell id="KDQt6LDgePx4zoFpufXs-12" value="Drow" style="swimlane;fontStyle=1;align=center;verticalAlign=top;childLayout=stackLayout;horizontal=1;startSize=26;horizontalStack=0;resizeParent=1;resizeParentMax=0;resizeLast=0;collapsible=1;marginBottom=0;whiteSpace=wrap;html=1;fillColor=#d0cee2;strokeColor=#56517e;" parent="1" vertex="1">
                    <mxGeometry x="-1420" y="1080" width="240" height="50" as="geometry"/>
                </mxCell>
                <mxCell id="uY9pWNeATDA_SJli-45b-63" value="+ applyPotionEffect(p: Potion*): void" style="text;align=left;verticalAlign=top;spacingLeft=4;spacingRight=4;overflow=hidden;rotatable=0;points=[[0,0.5],[1,0.5]];portConstraint=eastwest;whiteSpace=wrap;html=1;" parent="KDQt6LDgePx4zoFpufXs-12" vertex="1">
                    <mxGeometry y="26" width="240" height="24" as="geometry"/>
                </mxCell>
                <mxCell id="1ukILYW7oThmmqB00d8G-6" style="edgeStyle=orthogonalEdgeStyle;rounded=0;orthogonalLoop=1;jettySize=auto;html=1;exitX=0.5;exitY=0;exitDx=0;exitDy=0;fillColor=#d0cee2;strokeColor=#56517e;" parent="1" source="KDQt6LDgePx4zoFpufXs-16" target="uY9pWNeATDA_SJli-45b-10" edge="1">
                    <mxGeometry relative="1" as="geometry"/>
                </mxCell>
                <mxCell id="KDQt6LDgePx4zoFpufXs-16" value="Vampire" style="swimlane;fontStyle=1;align=center;verticalAlign=top;childLayout=stackLayout;horizontal=1;startSize=26;horizontalStack=0;resizeParent=1;resizeParentMax=0;resizeLast=0;collapsible=1;marginBottom=0;whiteSpace=wrap;html=1;fillColor=#d0cee2;strokeColor=#56517e;" parent="1" vertex="1">
                    <mxGeometry x="-940" y="1080" width="200" height="50" as="geometry"/>
                </mxCell>
                <mxCell id="KDQt6LDgePx4zoFpufXs-19" value="+ attack(target: Character*): void" style="text;align=left;verticalAlign=top;spacingLeft=4;spacingRight=4;overflow=hidden;rotatable=0;points=[[0,0.5],[1,0.5]];portConstraint=eastwest;whiteSpace=wrap;html=1;fillColor=none;strokeColor=#56517e;" parent="KDQt6LDgePx4zoFpufXs-16" vertex="1">
                    <mxGeometry y="26" width="200" height="24" as="geometry"/>
                </mxCell>
                <mxCell id="1ukILYW7oThmmqB00d8G-7" style="edgeStyle=orthogonalEdgeStyle;rounded=0;orthogonalLoop=1;jettySize=auto;html=1;exitX=0.5;exitY=0;exitDx=0;exitDy=0;fillColor=#d0cee2;strokeColor=#56517e;" parent="1" source="KDQt6LDgePx4zoFpufXs-20" target="uY9pWNeATDA_SJli-45b-10" edge="1">
                    <mxGeometry relative="1" as="geometry"/>
                </mxCell>
                <mxCell id="KDQt6LDgePx4zoFpufXs-20" value="Troll" style="swimlane;fontStyle=1;align=center;verticalAlign=top;childLayout=stackLayout;horizontal=1;startSize=26;horizontalStack=0;resizeParent=1;resizeParentMax=0;resizeLast=0;collapsible=1;marginBottom=0;whiteSpace=wrap;html=1;fillColor=#d0cee2;strokeColor=#56517e;" parent="1" vertex="1">
                    <mxGeometry x="-720" y="1080" width="160" height="50" as="geometry"/>
                </mxCell>
                <mxCell id="KDQt6LDgePx4zoFpufXs-23" value="+ endTurn(): void" style="text;align=left;verticalAlign=top;spacingLeft=4;spacingRight=4;overflow=hidden;rotatable=0;points=[[0,0.5],[1,0.5]];portConstraint=eastwest;whiteSpace=wrap;html=1;fillColor=none;strokeColor=#56517e;" parent="KDQt6LDgePx4zoFpufXs-20" vertex="1">
                    <mxGeometry y="26" width="160" height="24" as="geometry"/>
                </mxCell>
                <mxCell id="1ukILYW7oThmmqB00d8G-3" style="edgeStyle=orthogonalEdgeStyle;rounded=0;orthogonalLoop=1;jettySize=auto;html=1;exitX=0.5;exitY=0;exitDx=0;exitDy=0;fillColor=#d0cee2;strokeColor=#56517e;" parent="1" source="KDQt6LDgePx4zoFpufXs-24" target="uY9pWNeATDA_SJli-45b-10" edge="1">
                    <mxGeometry relative="1" as="geometry"/>
                </mxCell>
                <mxCell id="KDQt6LDgePx4zoFpufXs-24" value="Goblin" style="swimlane;fontStyle=1;align=center;verticalAlign=top;childLayout=stackLayout;horizontal=1;startSize=26;horizontalStack=0;resizeParent=1;resizeParentMax=0;resizeLast=0;collapsible=1;marginBottom=0;whiteSpace=wrap;html=1;fillColor=#d0cee2;strokeColor=#56517e;" parent="1" vertex="1">
                    <mxGeometry x="-1660" y="1080" width="200" height="50" as="geometry"/>
                </mxCell>
                <mxCell id="KDQt6LDgePx4zoFpufXs-27" value="+ onKill(enemy: Enemy*): void" style="text;align=left;verticalAlign=top;spacingLeft=4;spacingRight=4;overflow=hidden;rotatable=0;points=[[0,0.5],[1,0.5]];portConstraint=eastwest;whiteSpace=wrap;html=1;fillColor=none;strokeColor=#56517e;" parent="KDQt6LDgePx4zoFpufXs-24" vertex="1">
                    <mxGeometry y="26" width="200" height="24" as="geometry"/>
                </mxCell>
                <mxCell id="qicy7gPWWziAgEOSSkuV-21" style="edgeStyle=orthogonalEdgeStyle;rounded=0;orthogonalLoop=1;jettySize=auto;html=1;exitX=0.5;exitY=0;exitDx=0;exitDy=0;fontFamily=Helvetica;fontSize=12;fontColor=default;endArrow=block;endFill=0;fillColor=#b1ddf0;strokeColor=#10739e;" parent="1" source="KDQt6LDgePx4zoFpufXs-28" target="uY9pWNeATDA_SJli-45b-37" edge="1">
                    <mxGeometry relative="1" as="geometry">
                        <Array as="points">
                            <mxPoint x="220" y="1080"/>
                            <mxPoint x="1020" y="1080"/>
                        </Array>
                    </mxGeometry>
                </mxCell>
                <mxCell id="KDQt6LDgePx4zoFpufXs-28" value="Human" style="swimlane;fontStyle=1;align=center;verticalAlign=top;childLayout=stackLayout;horizontal=1;startSize=26;horizontalStack=0;resizeParent=1;resizeParentMax=0;resizeLast=0;collapsible=1;marginBottom=0;whiteSpace=wrap;html=1;fillColor=#b1ddf0;strokeColor=#10739e;" parent="1" vertex="1">
                    <mxGeometry x="140" y="1119" width="160" height="50" as="geometry"/>
                </mxCell>
                <mxCell id="KDQt6LDgePx4zoFpufXs-31" value="+ dropLoot(): Gold*" style="text;align=left;verticalAlign=top;spacingLeft=4;spacingRight=4;overflow=hidden;rotatable=0;points=[[0,0.5],[1,0.5]];portConstraint=eastwest;whiteSpace=wrap;html=1;fillColor=none;strokeColor=#10739e;" parent="KDQt6LDgePx4zoFpufXs-28" vertex="1">
                    <mxGeometry y="26" width="160" height="24" as="geometry"/>
                </mxCell>
                <mxCell id="qicy7gPWWziAgEOSSkuV-22" style="edgeStyle=orthogonalEdgeStyle;shape=connector;rounded=0;orthogonalLoop=1;jettySize=auto;html=1;exitX=0.5;exitY=0;exitDx=0;exitDy=0;strokeColor=#10739e;align=center;verticalAlign=middle;fontFamily=Helvetica;fontSize=12;fontColor=default;labelBackgroundColor=default;endArrow=block;endFill=0;fillColor=#b1ddf0;" parent="1" source="KDQt6LDgePx4zoFpufXs-32" target="uY9pWNeATDA_SJli-45b-37" edge="1">
                    <mxGeometry relative="1" as="geometry">
                        <Array as="points">
                            <mxPoint x="460" y="1080"/>
                            <mxPoint x="1020" y="1080"/>
                        </Array>
                    </mxGeometry>
                </mxCell>
                <mxCell id="KDQt6LDgePx4zoFpufXs-32" value="Dwarf" style="swimlane;fontStyle=1;align=center;verticalAlign=top;childLayout=stackLayout;horizontal=1;startSize=26;horizontalStack=0;resizeParent=1;resizeParentMax=0;resizeLast=0;collapsible=1;marginBottom=0;whiteSpace=wrap;html=1;fillColor=#b1ddf0;strokeColor=#10739e;" parent="1" vertex="1">
                    <mxGeometry x="340" y="1119" width="240" height="50" as="geometry"/>
                </mxCell>
                <mxCell id="KDQt6LDgePx4zoFpufXs-35" value="+ beAttackedBy(attacker: Character*): void" style="text;align=left;verticalAlign=top;spacingLeft=4;spacingRight=4;overflow=hidden;rotatable=0;points=[[0,0.5],[1,0.5]];portConstraint=eastwest;whiteSpace=wrap;html=1;fillColor=none;strokeColor=#10739e;" parent="KDQt6LDgePx4zoFpufXs-32" vertex="1">
                    <mxGeometry y="26" width="240" height="24" as="geometry"/>
                </mxCell>
                <mxCell id="qicy7gPWWziAgEOSSkuV-23" style="edgeStyle=orthogonalEdgeStyle;shape=connector;rounded=0;orthogonalLoop=1;jettySize=auto;html=1;exitX=0.5;exitY=0;exitDx=0;exitDy=0;strokeColor=#10739e;align=center;verticalAlign=middle;fontFamily=Helvetica;fontSize=12;fontColor=default;labelBackgroundColor=default;endArrow=block;endFill=0;fillColor=#b1ddf0;" parent="1" source="KDQt6LDgePx4zoFpufXs-36" target="uY9pWNeATDA_SJli-45b-37" edge="1">
                    <mxGeometry relative="1" as="geometry">
                        <Array as="points">
                            <mxPoint x="740" y="1080"/>
                            <mxPoint x="1020" y="1080"/>
                        </Array>
                    </mxGeometry>
                </mxCell>
                <mxCell id="KDQt6LDgePx4zoFpufXs-36" value="Elf" style="swimlane;fontStyle=1;align=center;verticalAlign=top;childLayout=stackLayout;horizontal=1;startSize=26;horizontalStack=0;resizeParent=1;resizeParentMax=0;resizeLast=0;collapsible=1;marginBottom=0;whiteSpace=wrap;html=1;fillColor=#b1ddf0;strokeColor=#10739e;" parent="1" vertex="1">
                    <mxGeometry x="620" y="1119" width="240" height="50" as="geometry"/>
                </mxCell>
                <mxCell id="KDQt6LDgePx4zoFpufXs-39" value="+ attack(target: Character*): void" style="text;align=left;verticalAlign=top;spacingLeft=4;spacingRight=4;overflow=hidden;rotatable=0;points=[[0,0.5],[1,0.5]];portConstraint=eastwest;whiteSpace=wrap;html=1;fillColor=none;strokeColor=#10739e;" parent="KDQt6LDgePx4zoFpufXs-36" vertex="1">
                    <mxGeometry y="26" width="240" height="24" as="geometry"/>
                </mxCell>
                <mxCell id="qicy7gPWWziAgEOSSkuV-24" style="edgeStyle=orthogonalEdgeStyle;shape=connector;rounded=0;orthogonalLoop=1;jettySize=auto;html=1;exitX=0.5;exitY=0;exitDx=0;exitDy=0;strokeColor=#10739e;align=center;verticalAlign=middle;fontFamily=Helvetica;fontSize=12;fontColor=default;labelBackgroundColor=default;endArrow=block;endFill=0;fillColor=#b1ddf0;" parent="1" source="KDQt6LDgePx4zoFpufXs-40" target="uY9pWNeATDA_SJli-45b-37" edge="1">
                    <mxGeometry relative="1" as="geometry"/>
                </mxCell>
                <mxCell id="KDQt6LDgePx4zoFpufXs-40" value="Orcs" style="swimlane;fontStyle=1;align=center;verticalAlign=top;childLayout=stackLayout;horizontal=1;startSize=26;horizontalStack=0;resizeParent=1;resizeParentMax=0;resizeLast=0;collapsible=1;marginBottom=0;whiteSpace=wrap;html=1;fillColor=#b1ddf0;strokeColor=#10739e;" parent="1" vertex="1">
                    <mxGeometry x="900" y="1120" width="240" height="50" as="geometry"/>
                </mxCell>
                <mxCell id="KDQt6LDgePx4zoFpufXs-43" value="+ attack(target: Character*): void" style="text;align=left;verticalAlign=top;spacingLeft=4;spacingRight=4;overflow=hidden;rotatable=0;points=[[0,0.5],[1,0.5]];portConstraint=eastwest;whiteSpace=wrap;html=1;fillColor=none;strokeColor=#10739e;" parent="KDQt6LDgePx4zoFpufXs-40" vertex="1">
                    <mxGeometry y="26" width="240" height="24" as="geometry"/>
                </mxCell>
                <mxCell id="qicy7gPWWziAgEOSSkuV-26" style="edgeStyle=orthogonalEdgeStyle;shape=connector;rounded=0;orthogonalLoop=1;jettySize=auto;html=1;exitX=0.5;exitY=0;exitDx=0;exitDy=0;strokeColor=#10739e;align=center;verticalAlign=middle;fontFamily=Helvetica;fontSize=12;fontColor=default;labelBackgroundColor=default;endArrow=block;endFill=0;fillColor=#b1ddf0;" parent="1" source="KDQt6LDgePx4zoFpufXs-48" target="uY9pWNeATDA_SJli-45b-37" edge="1">
                    <mxGeometry relative="1" as="geometry">
                        <Array as="points">
                            <mxPoint x="1540" y="1080"/>
                            <mxPoint x="1020" y="1080"/>
                        </Array>
                    </mxGeometry>
                </mxCell>
                <mxCell id="KDQt6LDgePx4zoFpufXs-48" value="Dragon" style="swimlane;fontStyle=1;align=center;verticalAlign=top;childLayout=stackLayout;horizontal=1;startSize=26;horizontalStack=0;resizeParent=1;resizeParentMax=0;resizeLast=0;collapsible=1;marginBottom=0;whiteSpace=wrap;html=1;fillColor=#b1ddf0;strokeColor=#10739e;" parent="1" vertex="1">
                    <mxGeometry x="1460" y="1120" width="160" height="52" as="geometry"/>
                </mxCell>
                <mxCell id="KDQt6LDgePx4zoFpufXs-51" value="+ act(): void" style="text;align=left;verticalAlign=top;spacingLeft=4;spacingRight=4;overflow=hidden;rotatable=0;points=[[0,0.5],[1,0.5]];portConstraint=eastwest;whiteSpace=wrap;html=1;fillColor=none;strokeColor=#10739e;" parent="KDQt6LDgePx4zoFpufXs-48" vertex="1">
                    <mxGeometry y="26" width="160" height="26" as="geometry"/>
                </mxCell>
                <mxCell id="qicy7gPWWziAgEOSSkuV-27" style="edgeStyle=orthogonalEdgeStyle;shape=connector;rounded=0;orthogonalLoop=1;jettySize=auto;html=1;exitX=0.5;exitY=0;exitDx=0;exitDy=0;strokeColor=#10739e;align=center;verticalAlign=middle;fontFamily=Helvetica;fontSize=12;fontColor=default;labelBackgroundColor=default;endArrow=block;endFill=0;fillColor=#b1ddf0;" parent="1" source="KDQt6LDgePx4zoFpufXs-52" target="uY9pWNeATDA_SJli-45b-37" edge="1">
                    <mxGeometry relative="1" as="geometry">
                        <Array as="points">
                            <mxPoint x="1800" y="1080"/>
                            <mxPoint x="1020" y="1080"/>
                        </Array>
                    </mxGeometry>
                </mxCell>
                <mxCell id="KDQt6LDgePx4zoFpufXs-52" value="Halfing" style="swimlane;fontStyle=1;align=center;verticalAlign=top;childLayout=stackLayout;horizontal=1;startSize=26;horizontalStack=0;resizeParent=1;resizeParentMax=0;resizeLast=0;collapsible=1;marginBottom=0;whiteSpace=wrap;html=1;fillColor=#b1ddf0;strokeColor=#10739e;" parent="1" vertex="1">
                    <mxGeometry x="1660" y="1120" width="280" height="50" as="geometry"/>
                </mxCell>
                <mxCell id="KDQt6LDgePx4zoFpufXs-55" value="+ beAttackedBy(attacker: Character*): void" style="text;align=left;verticalAlign=top;spacingLeft=4;spacingRight=4;overflow=hidden;rotatable=0;points=[[0,0.5],[1,0.5]];portConstraint=eastwest;whiteSpace=wrap;html=1;fillColor=none;strokeColor=#10739e;" parent="KDQt6LDgePx4zoFpufXs-52" vertex="1">
                    <mxGeometry y="26" width="280" height="24" as="geometry"/>
                </mxCell>
                <mxCell id="ApGJmGc57MLFiiCAId_t-60" style="edgeStyle=orthogonalEdgeStyle;rounded=0;orthogonalLoop=1;jettySize=auto;html=1;exitX=0.5;exitY=0;exitDx=0;exitDy=0;entryX=0;entryY=0.5;entryDx=0;entryDy=0;endArrow=diamondThin;endFill=1;fillColor=#d0cee2;strokeColor=#56517e;" parent="1" source="6aip0LbrX7Aj0xWpN0cm-16" target="ApGJmGc57MLFiiCAId_t-26" edge="1">
                    <mxGeometry relative="1" as="geometry"/>
                </mxCell>
                <mxCell id="6aip0LbrX7Aj0xWpN0cm-16" value="&lt;i&gt;Character&lt;/i&gt;" style="swimlane;fontStyle=1;align=center;verticalAlign=top;childLayout=stackLayout;horizontal=1;startSize=26;horizontalStack=0;resizeParent=1;resizeParentMax=0;resizeLast=0;collapsible=1;marginBottom=0;whiteSpace=wrap;html=1;fillColor=#d0cee2;strokeColor=#56517e;" parent="1" vertex="1">
                    <mxGeometry x="-600" y="400" width="280" height="346" as="geometry"/>
                </mxCell>
                <mxCell id="ApGJmGc57MLFiiCAId_t-20" value="- x: int" style="text;align=left;verticalAlign=top;spacingLeft=4;spacingRight=4;overflow=hidden;rotatable=0;points=[[0,0.5],[1,0.5]];portConstraint=eastwest;whiteSpace=wrap;html=1;" parent="6aip0LbrX7Aj0xWpN0cm-16" vertex="1">
                    <mxGeometry y="26" width="280" height="26" as="geometry"/>
                </mxCell>
                <mxCell id="ApGJmGc57MLFiiCAId_t-65" value="- y: int" style="text;align=left;verticalAlign=top;spacingLeft=4;spacingRight=4;overflow=hidden;rotatable=0;points=[[0,0.5],[1,0.5]];portConstraint=eastwest;whiteSpace=wrap;html=1;" parent="6aip0LbrX7Aj0xWpN0cm-16" vertex="1">
                    <mxGeometry y="52" width="280" height="26" as="geometry"/>
                </mxCell>
                <mxCell id="ApGJmGc57MLFiiCAId_t-66" value="- hp: int" style="text;align=left;verticalAlign=top;spacingLeft=4;spacingRight=4;overflow=hidden;rotatable=0;points=[[0,0.5],[1,0.5]];portConstraint=eastwest;whiteSpace=wrap;html=1;" parent="6aip0LbrX7Aj0xWpN0cm-16" vertex="1">
                    <mxGeometry y="78" width="280" height="26" as="geometry"/>
                </mxCell>
                <mxCell id="ApGJmGc57MLFiiCAId_t-67" value="- atk: int" style="text;align=left;verticalAlign=top;spacingLeft=4;spacingRight=4;overflow=hidden;rotatable=0;points=[[0,0.5],[1,0.5]];portConstraint=eastwest;whiteSpace=wrap;html=1;" parent="6aip0LbrX7Aj0xWpN0cm-16" vertex="1">
                    <mxGeometry y="104" width="280" height="26" as="geometry"/>
                </mxCell>
                <mxCell id="ApGJmGc57MLFiiCAId_t-68" value="- def: int" style="text;align=left;verticalAlign=top;spacingLeft=4;spacingRight=4;overflow=hidden;rotatable=0;points=[[0,0.5],[1,0.5]];portConstraint=eastwest;whiteSpace=wrap;html=1;" parent="6aip0LbrX7Aj0xWpN0cm-16" vertex="1">
                    <mxGeometry y="130" width="280" height="26" as="geometry"/>
                </mxCell>
                <mxCell id="ApGJmGc57MLFiiCAId_t-77" value="- inventory: std::vector&amp;lt;Item*&amp;gt;" style="text;align=left;verticalAlign=top;spacingLeft=4;spacingRight=4;overflow=hidden;rotatable=0;points=[[0,0.5],[1,0.5]];portConstraint=eastwest;whiteSpace=wrap;html=1;" parent="6aip0LbrX7Aj0xWpN0cm-16" vertex="1">
                    <mxGeometry y="156" width="280" height="26" as="geometry"/>
                </mxCell>
                <mxCell id="ApGJmGc57MLFiiCAId_t-21" value="" style="line;strokeWidth=1;align=left;verticalAlign=middle;spacingTop=-1;spacingLeft=3;spacingRight=3;rotatable=0;labelPosition=right;points=[];portConstraint=eastwest;" parent="6aip0LbrX7Aj0xWpN0cm-16" vertex="1">
                    <mxGeometry y="182" width="280" height="8" as="geometry"/>
                </mxCell>
                <mxCell id="ApGJmGc57MLFiiCAId_t-78" value="+ Character(x: int, y: int, hp: int, atk: int, def: int)" style="text;align=left;verticalAlign=top;spacingLeft=4;spacingRight=4;overflow=hidden;rotatable=0;points=[[0,0.5],[1,0.5]];portConstraint=eastwest;whiteSpace=wrap;html=1;" parent="6aip0LbrX7Aj0xWpN0cm-16" vertex="1">
                    <mxGeometry y="190" width="280" height="26" as="geometry"/>
                </mxCell>
                <mxCell id="ApGJmGc57MLFiiCAId_t-22" value="+ move(dx: int, dy: int): void" style="text;align=left;verticalAlign=top;spacingLeft=4;spacingRight=4;overflow=hidden;rotatable=0;points=[[0,0.5],[1,0.5]];portConstraint=eastwest;whiteSpace=wrap;html=1;" parent="6aip0LbrX7Aj0xWpN0cm-16" vertex="1">
                    <mxGeometry y="216" width="280" height="26" as="geometry"/>
                </mxCell>
                <mxCell id="ApGJmGc57MLFiiCAId_t-69" value="+ takeDamage(n): void" style="text;align=left;verticalAlign=top;spacingLeft=4;spacingRight=4;overflow=hidden;rotatable=0;points=[[0,0.5],[1,0.5]];portConstraint=eastwest;whiteSpace=wrap;html=1;" parent="6aip0LbrX7Aj0xWpN0cm-16" vertex="1">
                    <mxGeometry y="242" width="280" height="26" as="geometry"/>
                </mxCell>
                <mxCell id="ApGJmGc57MLFiiCAId_t-80" value="+ isDead(): bool" style="text;align=left;verticalAlign=top;spacingLeft=4;spacingRight=4;overflow=hidden;rotatable=0;points=[[0,0.5],[1,0.5]];portConstraint=eastwest;whiteSpace=wrap;html=1;" parent="6aip0LbrX7Aj0xWpN0cm-16" vertex="1">
                    <mxGeometry y="268" width="280" height="26" as="geometry"/>
                </mxCell>
                <mxCell id="ApGJmGc57MLFiiCAId_t-70" value="+ pickUp(i: Item*): void" style="text;align=left;verticalAlign=top;spacingLeft=4;spacingRight=4;overflow=hidden;rotatable=0;points=[[0,0.5],[1,0.5]];portConstraint=eastwest;whiteSpace=wrap;html=1;" parent="6aip0LbrX7Aj0xWpN0cm-16" vertex="1">
                    <mxGeometry y="294" width="280" height="26" as="geometry"/>
                </mxCell>
                <mxCell id="ApGJmGc57MLFiiCAId_t-72" value="&amp;nbsp;+ useItem(i: Item*): void" style="text;align=left;verticalAlign=top;spacingLeft=4;spacingRight=4;overflow=hidden;rotatable=0;points=[[0,0.5],[1,0.5]];portConstraint=eastwest;whiteSpace=wrap;html=1;" parent="6aip0LbrX7Aj0xWpN0cm-16" vertex="1">
                    <mxGeometry y="320" width="280" height="26" as="geometry"/>
                </mxCell>
                <mxCell id="ApGJmGc57MLFiiCAId_t-47" style="edgeStyle=orthogonalEdgeStyle;rounded=0;orthogonalLoop=1;jettySize=auto;html=1;exitX=0.5;exitY=0;exitDx=0;exitDy=0;endArrow=diamondThin;endFill=1;labelBackgroundColor=light-dark(default, #00b3ff);swimlaneLine=1;textShadow=0;fillColor=#b0e3e6;strokeColor=#0e8088;jumpStyle=none;" parent="1" source="ApGJmGc57MLFiiCAId_t-31" target="6aip0LbrX7Aj0xWpN0cm-100" edge="1">
                    <mxGeometry relative="1" as="geometry"/>
                </mxCell>
                <mxCell id="ApGJmGc57MLFiiCAId_t-31" value="Tile" style="swimlane;fontStyle=1;align=center;verticalAlign=top;childLayout=stackLayout;horizontal=1;startSize=26;horizontalStack=0;resizeParent=1;resizeParentMax=0;resizeLast=0;collapsible=1;marginBottom=0;whiteSpace=wrap;html=1;labelBackgroundColor=light-dark(default, #00b3ff);swimlaneLine=1;textShadow=0;fillColor=#b0e3e6;strokeColor=#0e8088;" parent="1" vertex="1">
                    <mxGeometry x="-160" y="402" width="240" height="320" as="geometry"/>
                </mxCell>
                <mxCell id="ApGJmGc57MLFiiCAId_t-32" value="- terrain:&amp;nbsp;TerrainType" style="text;strokeColor=none;fillColor=none;align=left;verticalAlign=top;spacingLeft=4;spacingRight=4;overflow=hidden;rotatable=0;points=[[0,0.5],[1,0.5]];portConstraint=eastwest;whiteSpace=wrap;html=1;labelBackgroundColor=light-dark(default, #00b3ff);swimlaneLine=1;textShadow=0;" parent="ApGJmGc57MLFiiCAId_t-31" vertex="1">
                    <mxGeometry y="26" width="240" height="26" as="geometry"/>
                </mxCell>
                <mxCell id="ApGJmGc57MLFiiCAId_t-37" value="- character: Character*" style="text;strokeColor=none;fillColor=none;align=left;verticalAlign=top;spacingLeft=4;spacingRight=4;overflow=hidden;rotatable=0;points=[[0,0.5],[1,0.5]];portConstraint=eastwest;whiteSpace=wrap;html=1;labelBackgroundColor=light-dark(default, #00b3ff);swimlaneLine=1;textShadow=0;" parent="ApGJmGc57MLFiiCAId_t-31" vertex="1">
                    <mxGeometry y="52" width="240" height="26" as="geometry"/>
                </mxCell>
                <mxCell id="ApGJmGc57MLFiiCAId_t-38" value="- item: Item*" style="text;strokeColor=none;fillColor=none;align=left;verticalAlign=top;spacingLeft=4;spacingRight=4;overflow=hidden;rotatable=0;points=[[0,0.5],[1,0.5]];portConstraint=eastwest;whiteSpace=wrap;html=1;labelBackgroundColor=light-dark(default, #00b3ff);swimlaneLine=1;textShadow=0;" parent="ApGJmGc57MLFiiCAId_t-31" vertex="1">
                    <mxGeometry y="78" width="240" height="26" as="geometry"/>
                </mxCell>
                <mxCell id="ApGJmGc57MLFiiCAId_t-33" value="" style="line;strokeWidth=1;fillColor=none;align=left;verticalAlign=middle;spacingTop=-1;spacingLeft=3;spacingRight=3;rotatable=0;labelPosition=right;points=[];portConstraint=eastwest;strokeColor=inherit;labelBackgroundColor=light-dark(default, #00b3ff);swimlaneLine=1;textShadow=0;" parent="ApGJmGc57MLFiiCAId_t-31" vertex="1">
                    <mxGeometry y="104" width="240" height="8" as="geometry"/>
                </mxCell>
                <mxCell id="ApGJmGc57MLFiiCAId_t-74" value="+ Tile()" style="text;strokeColor=none;fillColor=none;align=left;verticalAlign=top;spacingLeft=4;spacingRight=4;overflow=hidden;rotatable=0;points=[[0,0.5],[1,0.5]];portConstraint=eastwest;whiteSpace=wrap;html=1;labelBackgroundColor=light-dark(default, #00b3ff);swimlaneLine=1;textShadow=0;" parent="ApGJmGc57MLFiiCAId_t-31" vertex="1">
                    <mxGeometry y="112" width="240" height="26" as="geometry"/>
                </mxCell>
                <mxCell id="ApGJmGc57MLFiiCAId_t-34" value="+ getCharacter(): Character*" style="text;strokeColor=none;fillColor=none;align=left;verticalAlign=top;spacingLeft=4;spacingRight=4;overflow=hidden;rotatable=0;points=[[0,0.5],[1,0.5]];portConstraint=eastwest;whiteSpace=wrap;html=1;labelBackgroundColor=light-dark(default, #00b3ff);swimlaneLine=1;textShadow=0;" parent="ApGJmGc57MLFiiCAId_t-31" vertex="1">
                    <mxGeometry y="138" width="240" height="26" as="geometry"/>
                </mxCell>
                <mxCell id="ApGJmGc57MLFiiCAId_t-39" value="+ setCharacter(c: Character*): void" style="text;strokeColor=none;fillColor=none;align=left;verticalAlign=top;spacingLeft=4;spacingRight=4;overflow=hidden;rotatable=0;points=[[0,0.5],[1,0.5]];portConstraint=eastwest;whiteSpace=wrap;html=1;labelBackgroundColor=light-dark(default, #00b3ff);swimlaneLine=1;textShadow=0;" parent="ApGJmGc57MLFiiCAId_t-31" vertex="1">
                    <mxGeometry y="164" width="240" height="26" as="geometry"/>
                </mxCell>
                <mxCell id="ApGJmGc57MLFiiCAId_t-40" value="+ getItem(): Item*&amp;nbsp;&amp;nbsp;" style="text;strokeColor=none;fillColor=none;align=left;verticalAlign=top;spacingLeft=4;spacingRight=4;overflow=hidden;rotatable=0;points=[[0,0.5],[1,0.5]];portConstraint=eastwest;whiteSpace=wrap;html=1;labelBackgroundColor=light-dark(default, #00b3ff);swimlaneLine=1;textShadow=0;" parent="ApGJmGc57MLFiiCAId_t-31" vertex="1">
                    <mxGeometry y="190" width="240" height="26" as="geometry"/>
                </mxCell>
                <mxCell id="ApGJmGc57MLFiiCAId_t-42" value="+ setItem(i: Item*) : void" style="text;strokeColor=none;fillColor=none;align=left;verticalAlign=top;spacingLeft=4;spacingRight=4;overflow=hidden;rotatable=0;points=[[0,0.5],[1,0.5]];portConstraint=eastwest;whiteSpace=wrap;html=1;labelBackgroundColor=light-dark(default, #00b3ff);swimlaneLine=1;textShadow=0;" parent="ApGJmGc57MLFiiCAId_t-31" vertex="1">
                    <mxGeometry y="216" width="240" height="26" as="geometry"/>
                </mxCell>
                <mxCell id="ApGJmGc57MLFiiCAId_t-75" value="+ getTerrain(): TerrainType" style="text;strokeColor=none;fillColor=none;align=left;verticalAlign=top;spacingLeft=4;spacingRight=4;overflow=hidden;rotatable=0;points=[[0,0.5],[1,0.5]];portConstraint=eastwest;whiteSpace=wrap;html=1;labelBackgroundColor=light-dark(default, #00b3ff);swimlaneLine=1;textShadow=0;" parent="ApGJmGc57MLFiiCAId_t-31" vertex="1">
                    <mxGeometry y="242" width="240" height="26" as="geometry"/>
                </mxCell>
                <mxCell id="ApGJmGc57MLFiiCAId_t-76" value="+ setTerrain(t: TerrainType): void" style="text;strokeColor=none;fillColor=none;align=left;verticalAlign=top;spacingLeft=4;spacingRight=4;overflow=hidden;rotatable=0;points=[[0,0.5],[1,0.5]];portConstraint=eastwest;whiteSpace=wrap;html=1;labelBackgroundColor=light-dark(default, #00b3ff);swimlaneLine=1;textShadow=0;" parent="ApGJmGc57MLFiiCAId_t-31" vertex="1">
                    <mxGeometry y="268" width="240" height="26" as="geometry"/>
                </mxCell>
                <mxCell id="ApGJmGc57MLFiiCAId_t-43" value="+ isPassable(): bool" style="text;strokeColor=none;fillColor=none;align=left;verticalAlign=top;spacingLeft=4;spacingRight=4;overflow=hidden;rotatable=0;points=[[0,0.5],[1,0.5]];portConstraint=eastwest;whiteSpace=wrap;html=1;labelBackgroundColor=light-dark(default, #00b3ff);swimlaneLine=1;textShadow=0;" parent="ApGJmGc57MLFiiCAId_t-31" vertex="1">
                    <mxGeometry y="294" width="240" height="26" as="geometry"/>
                </mxCell>
                <mxCell id="ApGJmGc57MLFiiCAId_t-110" value="" style="endArrow=classic;html=1;rounded=0;exitX=1;exitY=0.5;exitDx=0;exitDy=0;entryX=-0.001;entryY=0.45;entryDx=0;entryDy=0;entryPerimeter=0;fillColor=#d0cee2;strokeColor=#56517e;" parent="1" source="ApGJmGc57MLFiiCAId_t-20" target="ApGJmGc57MLFiiCAId_t-32" edge="1">
                    <mxGeometry width="50" height="50" relative="1" as="geometry">
                        <mxPoint x="-300" y="490" as="sourcePoint"/>
                        <mxPoint x="-250" y="440" as="targetPoint"/>
                    </mxGeometry>
                </mxCell>
                <mxCell id="ApGJmGc57MLFiiCAId_t-111" value="" style="endArrow=classic;html=1;rounded=0;entryX=1.005;entryY=0.455;entryDx=0;entryDy=0;entryPerimeter=0;exitX=0;exitY=0.5;exitDx=0;exitDy=0;fillColor=#b1ddf0;strokeColor=#10739e;" parent="1" source="6aip0LbrX7Aj0xWpN0cm-23" target="ApGJmGc57MLFiiCAId_t-32" edge="1">
                    <mxGeometry width="50" height="50" relative="1" as="geometry">
                        <mxPoint x="140" y="480" as="sourcePoint"/>
                        <mxPoint x="190" y="430" as="targetPoint"/>
                    </mxGeometry>
                </mxCell>
                <mxCell id="uY9pWNeATDA_SJli-45b-100" style="edgeStyle=orthogonalEdgeStyle;rounded=0;orthogonalLoop=1;jettySize=auto;html=1;exitX=0.5;exitY=0;exitDx=0;exitDy=0;endArrow=block;endFill=0;fillColor=#d0cee2;strokeColor=#56517e;" parent="1" source="uY9pWNeATDA_SJli-45b-10" target="6aip0LbrX7Aj0xWpN0cm-16" edge="1">
                    <mxGeometry relative="1" as="geometry">
                        <Array as="points">
                            <mxPoint x="-1060" y="840"/>
                            <mxPoint x="-1060" y="800"/>
                            <mxPoint x="-460" y="800"/>
                        </Array>
                    </mxGeometry>
                </mxCell>
                <mxCell id="uY9pWNeATDA_SJli-45b-10" value="&lt;i&gt;Player&lt;/i&gt;" style="swimlane;fontStyle=3;align=center;verticalAlign=top;childLayout=stackLayout;horizontal=1;startSize=26;horizontalStack=0;resizeParent=1;resizeParentMax=0;resizeLast=0;collapsible=1;marginBottom=0;whiteSpace=wrap;html=1;swimlaneFillColor=default;fillColor=#d0cee2;strokeColor=#56517e;" parent="1" vertex="1">
                    <mxGeometry x="-1162" y="840" width="202" height="164" as="geometry"/>
                </mxCell>
                <mxCell id="uY9pWNeATDA_SJli-45b-11" value="- gold: int" style="text;align=left;verticalAlign=top;spacingLeft=4;spacingRight=4;overflow=hidden;rotatable=0;points=[[0,0.5],[1,0.5]];portConstraint=eastwest;whiteSpace=wrap;html=1;" parent="uY9pWNeATDA_SJli-45b-10" vertex="1">
                    <mxGeometry y="26" width="202" height="26" as="geometry"/>
                </mxCell>
                <mxCell id="uY9pWNeATDA_SJli-45b-12" value="- race: Race" style="text;align=left;verticalAlign=top;spacingLeft=4;spacingRight=4;overflow=hidden;rotatable=0;points=[[0,0.5],[1,0.5]];portConstraint=eastwest;whiteSpace=wrap;html=1;" parent="uY9pWNeATDA_SJli-45b-10" vertex="1">
                    <mxGeometry y="52" width="202" height="26" as="geometry"/>
                </mxCell>
                <mxCell id="uY9pWNeATDA_SJli-45b-17" value="" style="line;strokeWidth=1;align=left;verticalAlign=middle;spacingTop=-1;spacingLeft=3;spacingRight=3;rotatable=0;labelPosition=right;points=[];portConstraint=eastwest;" parent="uY9pWNeATDA_SJli-45b-10" vertex="1">
                    <mxGeometry y="78" width="202" height="8" as="geometry"/>
                </mxCell>
                <mxCell id="uY9pWNeATDA_SJli-45b-18" value="+ usePotion(p: Potion*): void" style="text;align=left;verticalAlign=top;spacingLeft=4;spacingRight=4;overflow=hidden;rotatable=0;points=[[0,0.5],[1,0.5]];portConstraint=eastwest;whiteSpace=wrap;html=1;" parent="uY9pWNeATDA_SJli-45b-10" vertex="1">
                    <mxGeometry y="86" width="202" height="26" as="geometry"/>
                </mxCell>
                <mxCell id="uY9pWNeATDA_SJli-45b-19" value="+ pickUpGold(g: Gold*): void" style="text;align=left;verticalAlign=top;spacingLeft=4;spacingRight=4;overflow=hidden;rotatable=0;points=[[0,0.5],[1,0.5]];portConstraint=eastwest;whiteSpace=wrap;html=1;" parent="uY9pWNeATDA_SJli-45b-10" vertex="1">
                    <mxGeometry y="112" width="202" height="26" as="geometry"/>
                </mxCell>
                <mxCell id="uY9pWNeATDA_SJli-45b-20" value="+ resetEffectsOnFloor(): void" style="text;align=left;verticalAlign=top;spacingLeft=4;spacingRight=4;overflow=hidden;rotatable=0;points=[[0,0.5],[1,0.5]];portConstraint=eastwest;whiteSpace=wrap;html=1;" parent="uY9pWNeATDA_SJli-45b-10" vertex="1">
                    <mxGeometry y="138" width="202" height="26" as="geometry"/>
                </mxCell>
                <mxCell id="KFpaXSxH8JISmnMz99yj-15" style="edgeStyle=orthogonalEdgeStyle;rounded=0;orthogonalLoop=1;jettySize=auto;html=1;exitX=0.5;exitY=0;exitDx=0;exitDy=0;endArrow=block;endFill=0;fillColor=#b1ddf0;strokeColor=#10739e;" parent="1" source="uY9pWNeATDA_SJli-45b-37" target="6aip0LbrX7Aj0xWpN0cm-16" edge="1">
                    <mxGeometry relative="1" as="geometry">
                        <Array as="points">
                            <mxPoint x="1020" y="800"/>
                            <mxPoint x="-460" y="800"/>
                        </Array>
                    </mxGeometry>
                </mxCell>
                <mxCell id="uY9pWNeATDA_SJli-45b-37" value="&lt;i&gt;Enemy&lt;/i&gt;" style="swimlane;fontStyle=1;align=center;verticalAlign=top;childLayout=stackLayout;horizontal=1;startSize=26;horizontalStack=0;resizeParent=1;resizeParentMax=0;resizeLast=0;collapsible=1;marginBottom=0;whiteSpace=wrap;html=1;fillColor=#b1ddf0;strokeColor=#10739e;" parent="1" vertex="1">
                    <mxGeometry x="880" y="840" width="280" height="190" as="geometry"/>
                </mxCell>
                <mxCell id="uY9pWNeATDA_SJli-45b-38" value="-&amp;nbsp;&lt;span style=&quot;color: light-dark(rgb(0, 0, 0), rgb(255, 255, 255)); background-color: transparent;&quot;&gt;&amp;nbsp;&lt;/span&gt;&lt;span style=&quot;color: light-dark(rgb(0, 0, 0), rgb(255, 255, 255)); background-color: transparent;&quot;&gt;hostile: bool&lt;/span&gt;" style="text;align=left;verticalAlign=top;spacingLeft=4;spacingRight=4;overflow=hidden;rotatable=0;points=[[0,0.5],[1,0.5]];portConstraint=eastwest;whiteSpace=wrap;html=1;" parent="uY9pWNeATDA_SJli-45b-37" vertex="1">
                    <mxGeometry y="26" width="280" height="26" as="geometry"/>
                </mxCell>
                <mxCell id="uY9pWNeATDA_SJli-45b-39" value="- type: string" style="text;align=left;verticalAlign=top;spacingLeft=4;spacingRight=4;overflow=hidden;rotatable=0;points=[[0,0.5],[1,0.5]];portConstraint=eastwest;whiteSpace=wrap;html=1;" parent="uY9pWNeATDA_SJli-45b-37" vertex="1">
                    <mxGeometry y="52" width="280" height="26" as="geometry"/>
                </mxCell>
                <mxCell id="uY9pWNeATDA_SJli-45b-44" value="- isDragon: bool" style="text;align=left;verticalAlign=top;spacingLeft=4;spacingRight=4;overflow=hidden;rotatable=0;points=[[0,0.5],[1,0.5]];portConstraint=eastwest;whiteSpace=wrap;html=1;" parent="uY9pWNeATDA_SJli-45b-37" vertex="1">
                    <mxGeometry y="78" width="280" height="26" as="geometry"/>
                </mxCell>
                <mxCell id="uY9pWNeATDA_SJli-45b-45" value="+ usePotion(p: Potion*): void" style="text;align=left;verticalAlign=top;spacingLeft=4;spacingRight=4;overflow=hidden;rotatable=0;points=[[0,0.5],[1,0.5]];portConstraint=eastwest;whiteSpace=wrap;html=1;" parent="uY9pWNeATDA_SJli-45b-37" vertex="1">
                    <mxGeometry y="104" width="280" height="26" as="geometry"/>
                </mxCell>
                <mxCell id="uY9pWNeATDA_SJli-45b-40" value="" style="line;strokeWidth=1;align=left;verticalAlign=middle;spacingTop=-1;spacingLeft=3;spacingRight=3;rotatable=0;labelPosition=right;points=[];portConstraint=eastwest;" parent="uY9pWNeATDA_SJli-45b-37" vertex="1">
                    <mxGeometry y="130" width="280" height="8" as="geometry"/>
                </mxCell>
                <mxCell id="uY9pWNeATDA_SJli-45b-41" value="&lt;div&gt;+ act(): void&lt;/div&gt;&lt;div&gt;&lt;br&gt;&lt;/div&gt;" style="text;align=left;verticalAlign=top;spacingLeft=4;spacingRight=4;overflow=hidden;rotatable=0;points=[[0,0.5],[1,0.5]];portConstraint=eastwest;whiteSpace=wrap;html=1;" parent="uY9pWNeATDA_SJli-45b-37" vertex="1">
                    <mxGeometry y="138" width="280" height="26" as="geometry"/>
                </mxCell>
                <mxCell id="uY9pWNeATDA_SJli-45b-42" value="+ dropLoot(): Gold*" style="text;align=left;verticalAlign=top;spacingLeft=4;spacingRight=4;overflow=hidden;rotatable=0;points=[[0,0.5],[1,0.5]];portConstraint=eastwest;whiteSpace=wrap;html=1;" parent="uY9pWNeATDA_SJli-45b-37" vertex="1">
                    <mxGeometry y="164" width="280" height="26" as="geometry"/>
                </mxCell>
                <mxCell id="ApGJmGc57MLFiiCAId_t-144" style="edgeStyle=orthogonalEdgeStyle;rounded=0;orthogonalLoop=1;jettySize=auto;html=1;exitX=0.5;exitY=0;exitDx=0;exitDy=0;fillColor=#b1ddf0;strokeColor=#10739e;" parent="1" source="uY9pWNeATDA_SJli-45b-46" target="6aip0LbrX7Aj0xWpN0cm-20" edge="1">
                    <mxGeometry relative="1" as="geometry">
                        <Array as="points">
                            <mxPoint x="220" y="520"/>
                            <mxPoint x="340" y="520"/>
                        </Array>
                    </mxGeometry>
                </mxCell>
                <mxCell id="uY9pWNeATDA_SJli-45b-46" value="Gold" style="swimlane;fontStyle=1;align=center;verticalAlign=top;childLayout=stackLayout;horizontal=1;startSize=26;horizontalStack=0;resizeParent=1;resizeParentMax=0;resizeLast=0;collapsible=1;marginBottom=0;whiteSpace=wrap;html=1;fillColor=#b1ddf0;strokeColor=#10739e;" parent="1" vertex="1">
                    <mxGeometry x="120" y="560" width="200" height="138" as="geometry"/>
                </mxCell>
                <mxCell id="uY9pWNeATDA_SJli-45b-47" value="-&amp;nbsp;value: int" style="text;align=left;verticalAlign=top;spacingLeft=4;spacingRight=4;overflow=hidden;rotatable=0;points=[[0,0.5],[1,0.5]];portConstraint=eastwest;whiteSpace=wrap;html=1;" parent="uY9pWNeATDA_SJli-45b-46" vertex="1">
                    <mxGeometry y="26" width="200" height="26" as="geometry"/>
                </mxCell>
                <mxCell id="uY9pWNeATDA_SJli-45b-48" value="-&amp;nbsp;guardedByDragon: bool" style="text;align=left;verticalAlign=top;spacingLeft=4;spacingRight=4;overflow=hidden;rotatable=0;points=[[0,0.5],[1,0.5]];portConstraint=eastwest;whiteSpace=wrap;html=1;" parent="uY9pWNeATDA_SJli-45b-46" vertex="1">
                    <mxGeometry y="52" width="200" height="26" as="geometry"/>
                </mxCell>
                <mxCell id="uY9pWNeATDA_SJli-45b-51" value="" style="line;strokeWidth=1;align=left;verticalAlign=middle;spacingTop=-1;spacingLeft=3;spacingRight=3;rotatable=0;labelPosition=right;points=[];portConstraint=eastwest;" parent="uY9pWNeATDA_SJli-45b-46" vertex="1">
                    <mxGeometry y="78" width="200" height="8" as="geometry"/>
                </mxCell>
                <mxCell id="uY9pWNeATDA_SJli-45b-52" value="&lt;div&gt;+ applyEffect(p: Player*): void&lt;/div&gt;" style="text;align=left;verticalAlign=top;spacingLeft=4;spacingRight=4;overflow=hidden;rotatable=0;points=[[0,0.5],[1,0.5]];portConstraint=eastwest;whiteSpace=wrap;html=1;" parent="uY9pWNeATDA_SJli-45b-46" vertex="1">
                    <mxGeometry y="86" width="200" height="26" as="geometry"/>
                </mxCell>
                <mxCell id="uY9pWNeATDA_SJli-45b-53" value="+ getValue(): int" style="text;align=left;verticalAlign=top;spacingLeft=4;spacingRight=4;overflow=hidden;rotatable=0;points=[[0,0.5],[1,0.5]];portConstraint=eastwest;whiteSpace=wrap;html=1;" parent="uY9pWNeATDA_SJli-45b-46" vertex="1">
                    <mxGeometry y="112" width="200" height="26" as="geometry"/>
                </mxCell>
                <mxCell id="ApGJmGc57MLFiiCAId_t-143" style="edgeStyle=orthogonalEdgeStyle;rounded=0;orthogonalLoop=1;jettySize=auto;html=1;exitX=0.5;exitY=0;exitDx=0;exitDy=0;endArrow=block;endFill=0;fillColor=#b1ddf0;strokeColor=#10739e;" parent="1" source="uY9pWNeATDA_SJli-45b-55" target="6aip0LbrX7Aj0xWpN0cm-20" edge="1">
                    <mxGeometry relative="1" as="geometry">
                        <Array as="points">
                            <mxPoint x="460" y="520"/>
                            <mxPoint x="340" y="520"/>
                        </Array>
                    </mxGeometry>
                </mxCell>
                <mxCell id="uY9pWNeATDA_SJli-45b-55" value="Potion" style="swimlane;fontStyle=1;align=center;verticalAlign=top;childLayout=stackLayout;horizontal=1;startSize=26;horizontalStack=0;resizeParent=1;resizeParentMax=0;resizeLast=0;collapsible=1;marginBottom=0;whiteSpace=wrap;html=1;fillColor=#b1ddf0;strokeColor=#10739e;" parent="1" vertex="1">
                    <mxGeometry x="360" y="560" width="200" height="190" as="geometry"/>
                </mxCell>
                <mxCell id="uY9pWNeATDA_SJli-45b-56" value="- type: PotionType" style="text;align=left;verticalAlign=top;spacingLeft=4;spacingRight=4;overflow=hidden;rotatable=0;points=[[0,0.5],[1,0.5]];portConstraint=eastwest;whiteSpace=wrap;html=1;" parent="uY9pWNeATDA_SJli-45b-55" vertex="1">
                    <mxGeometry y="26" width="200" height="26" as="geometry"/>
                </mxCell>
                <mxCell id="uY9pWNeATDA_SJli-45b-57" value="-&amp;nbsp;isDiscovered: bool" style="text;align=left;verticalAlign=top;spacingLeft=4;spacingRight=4;overflow=hidden;rotatable=0;points=[[0,0.5],[1,0.5]];portConstraint=eastwest;whiteSpace=wrap;html=1;" parent="uY9pWNeATDA_SJli-45b-55" vertex="1">
                    <mxGeometry y="52" width="200" height="26" as="geometry"/>
                </mxCell>
                <mxCell id="uY9pWNeATDA_SJli-45b-61" value="- isTemporary: bool" style="text;align=left;verticalAlign=top;spacingLeft=4;spacingRight=4;overflow=hidden;rotatable=0;points=[[0,0.5],[1,0.5]];portConstraint=eastwest;whiteSpace=wrap;html=1;" parent="uY9pWNeATDA_SJli-45b-55" vertex="1">
                    <mxGeometry y="78" width="200" height="26" as="geometry"/>
                </mxCell>
                <mxCell id="uY9pWNeATDA_SJli-45b-58" value="" style="line;strokeWidth=1;align=left;verticalAlign=middle;spacingTop=-1;spacingLeft=3;spacingRight=3;rotatable=0;labelPosition=right;points=[];portConstraint=eastwest;" parent="uY9pWNeATDA_SJli-45b-55" vertex="1">
                    <mxGeometry y="104" width="200" height="8" as="geometry"/>
                </mxCell>
                <mxCell id="uY9pWNeATDA_SJli-45b-59" value="&lt;div&gt;+ applyEffect(p: Player*): void&lt;/div&gt;" style="text;align=left;verticalAlign=top;spacingLeft=4;spacingRight=4;overflow=hidden;rotatable=0;points=[[0,0.5],[1,0.5]];portConstraint=eastwest;whiteSpace=wrap;html=1;" parent="uY9pWNeATDA_SJli-45b-55" vertex="1">
                    <mxGeometry y="112" width="200" height="26" as="geometry"/>
                </mxCell>
                <mxCell id="uY9pWNeATDA_SJli-45b-60" value="&lt;div&gt;+ markKnown(): void&lt;/div&gt;" style="text;align=left;verticalAlign=top;spacingLeft=4;spacingRight=4;overflow=hidden;rotatable=0;points=[[0,0.5],[1,0.5]];portConstraint=eastwest;whiteSpace=wrap;html=1;" parent="uY9pWNeATDA_SJli-45b-55" vertex="1">
                    <mxGeometry y="138" width="200" height="26" as="geometry"/>
                </mxCell>
                <mxCell id="uY9pWNeATDA_SJli-45b-62" value="&lt;div&gt;+ isKnown(): bool&lt;/div&gt;" style="text;align=left;verticalAlign=top;spacingLeft=4;spacingRight=4;overflow=hidden;rotatable=0;points=[[0,0.5],[1,0.5]];portConstraint=eastwest;whiteSpace=wrap;html=1;" parent="uY9pWNeATDA_SJli-45b-55" vertex="1">
                    <mxGeometry y="164" width="200" height="26" as="geometry"/>
                </mxCell>
                <mxCell id="uY9pWNeATDA_SJli-45b-89" style="edgeStyle=orthogonalEdgeStyle;rounded=0;orthogonalLoop=1;jettySize=auto;html=1;exitX=0.5;exitY=0;exitDx=0;exitDy=0;endArrow=block;endFill=0;fillColor=#d0cee2;strokeColor=#56517e;" parent="1" source="ApGJmGc57MLFiiCAId_t-123" target="6aip0LbrX7Aj0xWpN0cm-16" edge="1">
                    <mxGeometry relative="1" as="geometry">
                        <Array as="points">
                            <mxPoint x="-40" y="800"/>
                            <mxPoint x="-460" y="800"/>
                        </Array>
                    </mxGeometry>
                </mxCell>
                <mxCell id="ApGJmGc57MLFiiCAId_t-123" value="&lt;i&gt;Decorator&lt;/i&gt;" style="swimlane;fontStyle=1;align=center;verticalAlign=top;childLayout=stackLayout;horizontal=1;startSize=26;horizontalStack=0;resizeParent=1;resizeParentMax=0;resizeLast=0;collapsible=1;marginBottom=0;whiteSpace=wrap;html=1;fillColor=#d0cee2;strokeColor=#56517e;" parent="1" vertex="1">
                    <mxGeometry x="-160" y="840" width="240" height="52" as="geometry"/>
                </mxCell>
                <mxCell id="ApGJmGc57MLFiiCAId_t-124" value="+ apply(race: Race, hp: int, atk: int, def: int)" style="text;strokeColor=none;fillColor=none;align=left;verticalAlign=top;spacingLeft=4;spacingRight=4;overflow=hidden;rotatable=0;points=[[0,0.5],[1,0.5]];portConstraint=eastwest;whiteSpace=wrap;html=1;" parent="ApGJmGc57MLFiiCAId_t-123" vertex="1">
                    <mxGeometry y="26" width="240" height="26" as="geometry"/>
                </mxCell>
                <mxCell id="ApGJmGc57MLFiiCAId_t-136" style="edgeStyle=orthogonalEdgeStyle;rounded=0;orthogonalLoop=1;jettySize=auto;html=1;exitX=0.5;exitY=0;exitDx=0;exitDy=0;endArrow=block;endFill=0;fillColor=#d0cee2;strokeColor=#56517e;" parent="1" source="ApGJmGc57MLFiiCAId_t-127" target="ApGJmGc57MLFiiCAId_t-123" edge="1">
                    <mxGeometry relative="1" as="geometry"/>
                </mxCell>
                <mxCell id="ApGJmGc57MLFiiCAId_t-127" value="&lt;b&gt;Restore health (RH)&lt;/b&gt;" style="swimlane;fontStyle=0;childLayout=stackLayout;horizontal=1;startSize=26;fillColor=#d0cee2;horizontalStack=0;resizeParent=1;resizeParentMax=0;resizeLast=0;collapsible=1;marginBottom=0;whiteSpace=wrap;html=1;strokeColor=#56517e;" parent="1" vertex="1">
                    <mxGeometry x="260" y="960" width="240" height="52" as="geometry"/>
                </mxCell>
                <mxCell id="ApGJmGc57MLFiiCAId_t-128" value="+ apply(race: Race, hp: int, atk: int, def: int)" style="text;strokeColor=none;fillColor=none;align=left;verticalAlign=top;spacingLeft=4;spacingRight=4;overflow=hidden;rotatable=0;points=[[0,0.5],[1,0.5]];portConstraint=eastwest;whiteSpace=wrap;html=1;" parent="ApGJmGc57MLFiiCAId_t-127" vertex="1">
                    <mxGeometry y="26" width="240" height="26" as="geometry"/>
                </mxCell>
                <mxCell id="ApGJmGc57MLFiiCAId_t-137" style="edgeStyle=orthogonalEdgeStyle;rounded=0;orthogonalLoop=1;jettySize=auto;html=1;exitX=0.5;exitY=0;exitDx=0;exitDy=0;endArrow=block;endFill=0;fillColor=#d0cee2;strokeColor=#56517e;" parent="1" source="ApGJmGc57MLFiiCAId_t-131" target="ApGJmGc57MLFiiCAId_t-123" edge="1">
                    <mxGeometry relative="1" as="geometry"/>
                </mxCell>
                <mxCell id="ApGJmGc57MLFiiCAId_t-131" value="&lt;b&gt;Boost Atk (BA)&lt;/b&gt;" style="swimlane;fontStyle=0;childLayout=stackLayout;horizontal=1;startSize=26;fillColor=#d0cee2;horizontalStack=0;resizeParent=1;resizeParentMax=0;resizeLast=0;collapsible=1;marginBottom=0;whiteSpace=wrap;html=1;strokeColor=#56517e;" parent="1" vertex="1">
                    <mxGeometry x="540" y="960" width="240" height="52" as="geometry"/>
                </mxCell>
                <mxCell id="ApGJmGc57MLFiiCAId_t-133" value="+ apply(race: Race, hp: int, atk: int, def: int)" style="text;strokeColor=none;fillColor=none;align=left;verticalAlign=top;spacingLeft=4;spacingRight=4;overflow=hidden;rotatable=0;points=[[0,0.5],[1,0.5]];portConstraint=eastwest;whiteSpace=wrap;html=1;" parent="ApGJmGc57MLFiiCAId_t-131" vertex="1">
                    <mxGeometry y="26" width="240" height="26" as="geometry"/>
                </mxCell>
                <mxCell id="uY9pWNeATDA_SJli-45b-90" style="edgeStyle=orthogonalEdgeStyle;rounded=0;orthogonalLoop=1;jettySize=auto;html=1;exitX=0.5;exitY=0;exitDx=0;exitDy=0;endArrow=block;endFill=0;fillColor=#d0cee2;strokeColor=#56517e;" parent="1" source="KFpaXSxH8JISmnMz99yj-6" target="ApGJmGc57MLFiiCAId_t-123" edge="1">
                    <mxGeometry relative="1" as="geometry"/>
                </mxCell>
                <mxCell id="KFpaXSxH8JISmnMz99yj-6" value="Boost Def (BD)" style="swimlane;fontStyle=1;childLayout=stackLayout;horizontal=1;startSize=26;fillColor=#d0cee2;horizontalStack=0;resizeParent=1;resizeParentMax=0;resizeLast=0;collapsible=1;marginBottom=0;whiteSpace=wrap;html=1;strokeColor=#56517e;" parent="1" vertex="1">
                    <mxGeometry x="-20" y="960" width="240" height="52" as="geometry"/>
                </mxCell>
                <mxCell id="KFpaXSxH8JISmnMz99yj-7" value="+ apply(race: Race, hp: int, atk: int, def: int)" style="text;strokeColor=none;fillColor=none;align=left;verticalAlign=top;spacingLeft=4;spacingRight=4;overflow=hidden;rotatable=0;points=[[0,0.5],[1,0.5]];portConstraint=eastwest;whiteSpace=wrap;html=1;" parent="KFpaXSxH8JISmnMz99yj-6" vertex="1">
                    <mxGeometry y="26" width="240" height="26" as="geometry"/>
                </mxCell>
                <mxCell id="uY9pWNeATDA_SJli-45b-91" style="edgeStyle=orthogonalEdgeStyle;rounded=0;orthogonalLoop=1;jettySize=auto;html=1;exitX=0.5;exitY=0;exitDx=0;exitDy=0;endArrow=block;endFill=0;fillColor=#d0cee2;strokeColor=#56517e;" parent="1" source="KFpaXSxH8JISmnMz99yj-8" target="ApGJmGc57MLFiiCAId_t-123" edge="1">
                    <mxGeometry relative="1" as="geometry"/>
                </mxCell>
                <mxCell id="KFpaXSxH8JISmnMz99yj-8" value="Poison health (PH)" style="swimlane;fontStyle=1;childLayout=stackLayout;horizontal=1;startSize=26;fillColor=#d0cee2;horizontalStack=0;resizeParent=1;resizeParentMax=0;resizeLast=0;collapsible=1;marginBottom=0;whiteSpace=wrap;html=1;strokeColor=#56517e;" parent="1" vertex="1">
                    <mxGeometry x="-300" y="960" width="240" height="52" as="geometry"/>
                </mxCell>
                <mxCell id="KFpaXSxH8JISmnMz99yj-9" value="+ apply(race: Race, hp: int, atk: int, def: int)" style="text;strokeColor=none;fillColor=none;align=left;verticalAlign=top;spacingLeft=4;spacingRight=4;overflow=hidden;rotatable=0;points=[[0,0.5],[1,0.5]];portConstraint=eastwest;whiteSpace=wrap;html=1;" parent="KFpaXSxH8JISmnMz99yj-8" vertex="1">
                    <mxGeometry y="26" width="240" height="26" as="geometry"/>
                </mxCell>
                <mxCell id="uY9pWNeATDA_SJli-45b-92" style="edgeStyle=orthogonalEdgeStyle;rounded=0;orthogonalLoop=1;jettySize=auto;html=1;exitX=0.5;exitY=0;exitDx=0;exitDy=0;endArrow=block;endFill=0;fillColor=#d0cee2;strokeColor=#56517e;" parent="1" source="KFpaXSxH8JISmnMz99yj-10" target="ApGJmGc57MLFiiCAId_t-123" edge="1">
                    <mxGeometry relative="1" as="geometry"/>
                </mxCell>
                <mxCell id="KFpaXSxH8JISmnMz99yj-10" value="Wound Atk (WA)" style="swimlane;fontStyle=1;childLayout=stackLayout;horizontal=1;startSize=26;fillColor=#d0cee2;horizontalStack=0;resizeParent=1;resizeParentMax=0;resizeLast=0;collapsible=1;marginBottom=0;whiteSpace=wrap;html=1;strokeColor=#56517e;" parent="1" vertex="1">
                    <mxGeometry x="-580" y="960" width="240" height="52" as="geometry"/>
                </mxCell>
                <mxCell id="KFpaXSxH8JISmnMz99yj-11" value="+ apply(race: Race, hp: int, atk: int, def: int)" style="text;strokeColor=none;fillColor=none;align=left;verticalAlign=top;spacingLeft=4;spacingRight=4;overflow=hidden;rotatable=0;points=[[0,0.5],[1,0.5]];portConstraint=eastwest;whiteSpace=wrap;html=1;" parent="KFpaXSxH8JISmnMz99yj-10" vertex="1">
                    <mxGeometry y="26" width="240" height="26" as="geometry"/>
                </mxCell>
                <mxCell id="uY9pWNeATDA_SJli-45b-93" style="edgeStyle=orthogonalEdgeStyle;rounded=0;orthogonalLoop=1;jettySize=auto;html=1;exitX=0.5;exitY=0;exitDx=0;exitDy=0;endArrow=block;endFill=0;fillColor=#d0cee2;strokeColor=#56517e;" parent="1" source="KFpaXSxH8JISmnMz99yj-12" target="ApGJmGc57MLFiiCAId_t-123" edge="1">
                    <mxGeometry relative="1" as="geometry"/>
                </mxCell>
                <mxCell id="KFpaXSxH8JISmnMz99yj-12" value="Wound Def (WD)" style="swimlane;fontStyle=1;childLayout=stackLayout;horizontal=1;startSize=26;fillColor=#d0cee2;horizontalStack=0;resizeParent=1;resizeParentMax=0;resizeLast=0;collapsible=1;marginBottom=0;whiteSpace=wrap;html=1;strokeColor=#56517e;" parent="1" vertex="1">
                    <mxGeometry x="-860" y="960" width="240" height="52" as="geometry"/>
                </mxCell>
                <mxCell id="KFpaXSxH8JISmnMz99yj-13" value="+ apply(race: Race, hp: int, atk: int, def: int)" style="text;strokeColor=none;fillColor=none;align=left;verticalAlign=top;spacingLeft=4;spacingRight=4;overflow=hidden;rotatable=0;points=[[0,0.5],[1,0.5]];portConstraint=eastwest;whiteSpace=wrap;html=1;" parent="KFpaXSxH8JISmnMz99yj-12" vertex="1">
                    <mxGeometry y="26" width="240" height="26" as="geometry"/>
                </mxCell>
                <mxCell id="1ukILYW7oThmmqB00d8G-2" style="edgeStyle=orthogonalEdgeStyle;rounded=0;orthogonalLoop=1;jettySize=auto;html=1;exitX=0.5;exitY=0;exitDx=0;exitDy=0;strokeColor=#10739e;align=center;verticalAlign=middle;fontFamily=Helvetica;fontSize=12;fontColor=default;labelBackgroundColor=default;endArrow=block;endFill=0;fillColor=#b1ddf0;" parent="1" source="qicy7gPWWziAgEOSSkuV-6" target="uY9pWNeATDA_SJli-45b-37" edge="1">
                    <mxGeometry relative="1" as="geometry">
                        <Array as="points">
                            <mxPoint x="1300" y="1080"/>
                            <mxPoint x="1020" y="1080"/>
                        </Array>
                    </mxGeometry>
                </mxCell>
                <mxCell id="qicy7gPWWziAgEOSSkuV-6" value="Marchant" style="swimlane;fontStyle=1;align=center;verticalAlign=top;childLayout=stackLayout;horizontal=1;startSize=26;horizontalStack=0;resizeParent=1;resizeParentMax=0;resizeLast=0;collapsible=1;marginBottom=0;whiteSpace=wrap;html=1;strokeColor=#10739e;spacingLeft=4;spacingRight=4;fontFamily=Helvetica;fontSize=12;fillColor=#b1ddf0;" parent="1" vertex="1">
                    <mxGeometry x="1180" y="1119" width="240" height="78" as="geometry"/>
                </mxCell>
                <mxCell id="qicy7gPWWziAgEOSSkuV-7" value="+ beAttackedBy(attacker: Character*): void" style="text;strokeColor=none;fillColor=none;align=left;verticalAlign=top;spacingLeft=4;spacingRight=4;overflow=hidden;rotatable=0;points=[[0,0.5],[1,0.5]];portConstraint=eastwest;whiteSpace=wrap;html=1;fontFamily=Helvetica;fontSize=12;fontColor=default;" parent="qicy7gPWWziAgEOSSkuV-6" vertex="1">
                    <mxGeometry y="26" width="240" height="26" as="geometry"/>
                </mxCell>
                <mxCell id="qicy7gPWWziAgEOSSkuV-10" value="+ static setAllHostile(): void" style="text;strokeColor=none;fillColor=none;align=left;verticalAlign=top;spacingLeft=4;spacingRight=4;overflow=hidden;rotatable=0;points=[[0,0.5],[1,0.5]];portConstraint=eastwest;whiteSpace=wrap;html=1;fontFamily=Helvetica;fontSize=12;fontColor=default;" parent="qicy7gPWWziAgEOSSkuV-6" vertex="1">
                    <mxGeometry y="52" width="240" height="26" as="geometry"/>
                </mxCell>
                <mxCell id="qicy7gPWWziAgEOSSkuV-13" value="Color" style="swimlane;fontStyle=1;align=center;verticalAlign=middle;childLayout=stackLayout;horizontal=1;startSize=40;horizontalStack=0;resizeParent=1;resizeParentMax=0;resizeLast=0;collapsible=1;marginBottom=0;whiteSpace=wrap;html=1;spacingLeft=4;spacingRight=4;fontFamily=Helvetica;fontSize=14;fillColor=none;" parent="1" vertex="1">
                    <mxGeometry x="440" y="-560" width="210" height="160" as="geometry"/>
                </mxCell>
                <mxCell id="qicy7gPWWziAgEOSSkuV-14" value="Jingming Wu" style="text;strokeColor=#0e8088;fillColor=#b0e3e6;align=center;verticalAlign=middle;spacingLeft=4;spacingRight=4;overflow=hidden;rotatable=0;points=[[0,0.5],[1,0.5]];portConstraint=eastwest;whiteSpace=wrap;html=1;fontFamily=Helvetica;fontSize=19;" parent="qicy7gPWWziAgEOSSkuV-13" vertex="1">
                    <mxGeometry y="40" width="210" height="40" as="geometry"/>
                </mxCell>
                <mxCell id="qicy7gPWWziAgEOSSkuV-17" value="Sian Qian" style="text;strokeColor=#56517e;fillColor=#d0cee2;align=center;verticalAlign=middle;spacingLeft=4;spacingRight=4;overflow=hidden;rotatable=0;points=[[0,0.5],[1,0.5]];portConstraint=eastwest;whiteSpace=wrap;html=1;fontFamily=Helvetica;fontSize=19;fontColor=default;" parent="qicy7gPWWziAgEOSSkuV-13" vertex="1">
                    <mxGeometry y="80" width="210" height="40" as="geometry"/>
                </mxCell>
                <mxCell id="qicy7gPWWziAgEOSSkuV-18" value="Lydia Gao" style="text;strokeColor=#10739e;fillColor=#b1ddf0;align=center;verticalAlign=middle;spacingLeft=4;spacingRight=4;overflow=hidden;rotatable=0;points=[[0,0.5],[1,0.5]];portConstraint=eastwest;whiteSpace=wrap;html=1;fontFamily=Helvetica;fontSize=19;fontColor=default;" parent="qicy7gPWWziAgEOSSkuV-13" vertex="1">
                    <mxGeometry y="120" width="210" height="40" as="geometry"/>
                </mxCell>
                <mxCell id="qicy7gPWWziAgEOSSkuV-19" style="edgeStyle=orthogonalEdgeStyle;rounded=0;orthogonalLoop=1;jettySize=auto;html=1;exitX=0.25;exitY=0;exitDx=0;exitDy=0;entryX=0.75;entryY=0;entryDx=0;entryDy=0;fontFamily=Helvetica;fontSize=12;fontColor=default;startArrow=none;startFill=0;endArrow=diamondThin;endFill=0;jumpStyle=line;fillColor=#b1ddf0;strokeColor=#10739e;" parent="1" source="6aip0LbrX7Aj0xWpN0cm-20" target="6aip0LbrX7Aj0xWpN0cm-16" edge="1">
                    <mxGeometry relative="1" as="geometry"/>
                </mxCell>
            </root>
        </mxGraphModel>
    </diagram>
</mxfile>